<svg width="51" height="51" viewBox="0 0 51 51" fill="none" xmlns="http://www.w3.org/2000/svg">
<path d="M22.974 9.87634C24.3775 10.0957 25.6534 10.7816 26.5739 11.8117C27.4945 12.8418 27.9999 14.149 28 15.5003V19.3002H16V15.5003C16 13.5262 17.056 11.7858 18.66 10.7636C18.084 10.2764 17.3719 9.95771 16.6096 9.84604C15.8474 9.73436 15.0673 9.83443 14.3636 10.1342C13.6598 10.434 13.0622 10.9206 12.6429 11.5356C12.2235 12.1506 12.0003 12.8676 12 13.6003V25.0002H44C44.5304 25.0002 45.0391 25.2004 45.4142 25.5567C45.7893 25.913 46 26.3963 46 26.9002C46 27.4041 45.7893 27.8873 45.4142 28.2437C45.0391 28.6 44.5304 28.8002 44 28.8002V30.7001C44.0003 33.0581 43.2312 35.3582 41.7985 37.2838C40.3658 39.2093 38.34 40.6656 36 41.4521V42.1C36 42.6039 35.7893 43.0872 35.4142 43.4435C35.0391 43.7998 34.5304 44 34 44C33.4696 44 32.9609 43.7998 32.5858 43.4435C32.2107 43.0872 32 42.6039 32 42.1H20C20 42.6039 19.7893 43.0872 19.4142 43.4435C19.0391 43.7998 18.5304 44 18 44C17.4696 44 16.9609 43.7998 16.5858 43.4435C16.2107 43.0872 16 42.6039 16 42.1V41.4521C13.66 40.6656 11.6342 39.2093 10.2015 37.2838C8.76884 35.3582 7.9997 33.0581 8 30.7001V28.8002C7.46957 28.8002 6.96086 28.6 6.58579 28.2437C6.21071 27.8873 6 27.4041 6 26.9002C6 26.3963 6.21071 25.913 6.58579 25.5567C6.96086 25.2004 7.46957 25.0002 8 25.0002V13.6003C7.99991 11.9197 8.58618 10.2865 9.6671 8.95619C10.748 7.62584 12.2626 6.67337 13.974 6.24776C15.6853 5.82215 17.4969 5.94742 19.1254 6.60397C20.7538 7.26051 22.1073 8.41131 22.974 9.87634ZM40 28.8002H12V30.7001C12 32.7158 12.8429 34.6488 14.3431 36.0741C15.8434 37.4994 17.8783 38.3001 20 38.3001H32C34.1217 38.3001 36.1566 37.4994 37.6569 36.0741C39.1571 34.6488 40 32.7158 40 30.7001V28.8002ZM22 13.6003C21.4696 13.6003 20.9609 13.8005 20.5858 14.1568C20.2107 14.5131 20 14.9964 20 15.5003H24C24 14.9964 23.7893 14.5131 23.4142 14.1568C23.0391 13.8005 22.5304 13.6003 22 13.6003Z" fill="#B8BFBF"/>
</svg>
