<?xml version="1.0" encoding="utf-8"?>
<!-- Generator: Adobe Illustrator 24.2.3, SVG Export Plug-In . SVG Version: 6.00 Build 0)  -->
<svg version="1.1" id="图层_1" xmlns="http://www.w3.org/2000/svg" xmlns:xlink="http://www.w3.org/1999/xlink" x="0px" y="0px"
	 viewBox="0 0 854.8 489.8" style="enable-background:new 0 0 854.8 489.8;" xml:space="preserve">
<style type="text/css">
	.st0{opacity:0.15;fill:#90CFC5;enable-background:new    ;}
	.st1{fill:#F4A36D;}
	.st2{fill:#E3EEE6;}
	.st3{fill:#33A9C0;}
	.st4{fill:#00A178;}
	.st5{opacity:0.4;}
	.st6{fill:#75C1D8;}
	.st7{fill:#FFFFFF;}
	.st8{fill:#072844;}
	.st9{fill:#474961;}
	.st10{opacity:0.4;fill:#75C1D8;enable-background:new    ;}
	.st11{fill:#C7DEF3;}
	.st12{opacity:0.1;fill:#007697;enable-background:new    ;}
	.st13{fill:#299783;}
	.st14{fill:#FAD5C6;}
</style>
<path class="st0" d="M106.6,489.8c0,0-53.6-30.8-45.8-97.3c8-68.7,39.1-41.1,109.1-111.1c33.6-33.6,25.5-62.6,39.8-100.3
	c17.1-45.2,85.9-127.5,171-122.1c101.5,6.4,21.2,76.1,155.2,76.1c107.2,0,160,21.8,177.2,123.4c10.2,60.5,157.3,106.6,78.3,228
	L106.6,489.8z"/>
<path class="st1" d="M621.4,2.8c-14.5-6.9-31.7-0.7-38.6,13.8c-6.9,14.5,1.1,52.8,6,55.1s39.5-15.7,46.4-30.2
	C642.1,27,635.9,9.7,621.4,2.8z"/>
<path class="st2" d="M625.5,36.8c-4.3,9.1-15.2,13-24.3,8.7c-9.1-4.3-13-15.2-8.7-24.3s15.2-13,24.3-8.7c0,0,0,0,0,0
	C625.9,16.8,629.8,27.7,625.5,36.8z"/>
<polygon class="st3" points="148.9,327.6 148.4,335.2 152.5,341.7 144.8,341.2 138.4,345.3 138.9,337.7 134.8,331.2 142.4,331.7 "/>
<polygon class="st4" points="602.1,86.4 604.3,91.4 609,94.1 604,96.3 601.3,101 599.1,96 594.4,93.3 599.4,91.1 "/>
<polygon class="st4" points="771.6,204.4 773.8,209.4 778.5,212.1 773.5,214.3 770.8,219 768.6,214 763.9,211.3 768.9,209.1 "/>
<polygon class="st4" points="736.1,285.1 738.3,290.1 743,292.8 738,295 735.3,299.7 733.1,294.7 728.4,292 733.4,289.8 "/>
<polygon class="st4" points="793.6,123.6 795.8,128.6 800.5,131.4 795.5,133.5 792.8,138.3 790.6,133.3 785.9,130.5 790.9,128.4 "/>
<g id="Plants_Narrow_04" class="st5">
	<path id="Plant" class="st6" d="M334.3,280.3c3.5,7.2,6.9,15,10.2,23.3c7,18.1,12.9,36.6,17.8,55.5c1.7,6.6,3.2,12.8,4.5,18.4
		c0.4,1.9,0.8,3.7,1.1,5.2l0.3,1.4c0,0.2,0.1,0.4,0.1,0.5c0.1,0.4-0.2,0.8-0.6,0.9c-0.4,0.1-0.8-0.2-0.9-0.6c0,0,0,0,0,0
		c0-0.1,0-0.2-0.1-0.5c-0.1-0.4-0.2-0.8-0.3-1.4c-0.3-1.5-0.7-3.2-1.1-5.1c-1.2-5.5-2.7-11.7-4.5-18.3
		c-4.8-18.8-10.7-37.2-17.7-55.3c-6.4-16.4-13.3-30.7-20.7-42.4c-1.1-1.8-2.2-3.5-3.3-5.2c-1,1.5-2.5,2.6-4.3,3
		c-4.4,1.4-12.7-1.4-10.4-4.1c1.8-2.2,10.6-0.7,13.9-0.1c-8-11.9-15.1-20.5-21.5-26.4c-2.1-2-4.3-3.8-6.7-5.4
		c-0.5-0.4-1.1-0.7-1.7-1l-0.4-0.2h-0.1c-0.1,0-0.2-0.1-0.2-0.1c-0.1,0-0.1,0-0.2-0.2v-0.1l0-0.2v-0.1c-5.7-2.2-16.9-7.7-29.6-20.4
		c-18.2-18.2-1.5-24.1,2.8-21.3c9.6,6.2,24.4,35.1,29.8,42l0.4,0.2c2.5,1.6,4.8,3.5,7,5.6c0.6,0.5,1.1,1.1,1.7,1.6
		c-1.6-2.7-6-10.6-7.8-16.9c-2.2-7.8-3.7-19-1.8-25.7s11.3-5.7,12.5,8.6c1.2,13.2-1.8,32-2.3,34.7c7,7,14.9,17.1,23.6,30.9
		c3.7,6,7.2,12.1,10.2,18.4c-0.9-3.3-3.5-12.6-4.7-17.7c-2-9,1.5-19.3,7.2-14.1C343.4,254,335.3,277.4,334.3,280.3z M288.5,222.1
		c-0.2,0.1-0.4,0.2-0.6,0.2C288.2,222.3,288.4,222.2,288.5,222.1z M288,222.3L288,222.3C287.9,222.3,287.9,222.3,288,222.3
		L288,222.3z M299.2,231.7c0,0-7.3,17.4-18.1,22.1c-8.4,3.7-5.6-9.6,1.5-15.9S299.2,231.7,299.2,231.7L299.2,231.7z M314.3,246.9
		c0,0-1.9-9.3-1.5-16.3s7.5-24,11.7-17.4S314.3,246.9,314.3,246.9z M335.9,287.4c0,0-4.9,2.5-9.4,2.4s-11-6.3-7.8-10.1
		S335.9,287.3,335.9,287.4L335.9,287.4z"/>
</g>
<g id="Plants_Wide_06" class="st5">
	<path id="Path" class="st6" d="M358.7,417.8c0,0-6.9-25.4-21.1-40.7s-22-12.6-31.9-8.5c-9.6,4.1-15.6,8.5-21.9,0.5
		c-6.1-7.8,1.7-14.5,1.7-14.5s-23,11.3-32.4-8c-7.7-15.7,1.4-28.7,10.4-32.5c13-5.5,25.5,3.6,25.5,3.6s-2.2-15.8,16.5-15.6
		c16.3,0.1,21,28.6,21,28.6s4.3-16.5,19.1-7.1c12.4,7.9,18.1,31,19.5,50.8C366.1,388.3,358.7,417.8,358.7,417.8z"/>
</g>
<path class="st4" d="M182,121.3c0.6,0.1,1.1,0.4,1.5,0.9l0.7-4.2c0.1-0.8-0.4-1.5-1.2-1.7l-0.4-0.1c-0.8-0.1-1.5,0.4-1.7,1.2
	l-0.7,4.2C180.8,121.4,181.4,121.2,182,121.3z"/>
<path class="st4" d="M181.2,126.1c-0.6-0.1-1.1-0.4-1.5-0.9l-0.7,4c-0.1,0.8,0.4,1.5,1.2,1.7l0.4,0.1c0.8,0.1,1.5-0.4,1.7-1.2
	c0,0,0,0,0,0l0.7-4C182.4,126,181.8,126.2,181.2,126.1z"/>
<path class="st4" d="M187.8,123l-4.2-0.7c0.4,0.5,0.6,1.2,0.4,1.9c-0.1,0.6-0.4,1.1-0.9,1.4l4,0.7c0.8,0.1,1.5-0.4,1.7-1.2
	c0,0,0,0,0,0l0.1-0.4C189,123.9,188.5,123.2,187.8,123z"/>
<path class="st4" d="M179.2,123.3c0.1-0.6,0.5-1.2,1-1.6L176,121c-0.8-0.1-1.5,0.4-1.7,1.2c0,0,0,0,0,0l-0.1,0.4
	c-0.1,0.8,0.4,1.5,1.2,1.7l4,0.7C179.2,124.4,179.1,123.8,179.2,123.3z"/>
<path class="st4" d="M702.8,128.6c0.6,0.1,1.1,0.4,1.5,0.9l0.7-4.2c0.1-0.8-0.4-1.5-1.2-1.7l-0.4-0.1c-0.8-0.1-1.5,0.4-1.7,1.2
	L701,129C701.5,128.7,702.2,128.5,702.8,128.6z"/>
<path class="st4" d="M701.9,133.4c-0.6-0.1-1.2-0.5-1.5-1l-0.7,4c-0.1,0.8,0.4,1.5,1.2,1.7c0,0,0,0,0,0l0.4,0.1
	c0.8,0.1,1.5-0.4,1.7-1.2c0,0,0,0,0,0l0.7-4C703.2,133.3,702.5,133.5,701.9,133.4z"/>
<path class="st4" d="M708.5,130.3l-4.2-0.7c0.4,0.5,0.6,1.2,0.4,1.8c-0.1,0.6-0.4,1.1-0.9,1.4l4,0.7c0.8,0.1,1.5-0.4,1.7-1.2
	c0,0,0,0,0,0l0.1-0.4C709.7,131.2,709.2,130.5,708.5,130.3z"/>
<path class="st4" d="M700,130.6c0.1-0.6,0.5-1.2,1-1.6l-4.2-0.7c-0.8-0.1-1.5,0.4-1.7,1.2l-0.1,0.4c-0.1,0.8,0.4,1.5,1.2,1.7l4,0.7
	C699.9,131.7,699.9,131.1,700,130.6z"/>
<path class="st4" d="M743.4,390.6c0.6,0.1,1.2,0.4,1.5,0.9l0.7-4.2c0.1-0.8-0.4-1.5-1.2-1.7c0,0,0,0,0,0l-0.4-0.1
	c-0.8-0.1-1.5,0.4-1.7,1.2l-0.7,4.2C742.2,390.6,742.8,390.5,743.4,390.6z"/>
<path class="st4" d="M742.6,395.3c-0.6-0.1-1.1-0.4-1.5-1l-0.7,4c-0.1,0.8,0.4,1.5,1.2,1.7l0.4,0.1c0.8,0.1,1.5-0.4,1.7-1.1
	c0,0,0,0,0,0l0.7-4C743.8,395.3,743.2,395.4,742.6,395.3z"/>
<path class="st4" d="M749.1,392.3l-4.2-0.7c0.4,0.5,0.6,1.2,0.4,1.9c-0.1,0.6-0.4,1.1-0.9,1.4l4,0.7c0.8,0.1,1.5-0.4,1.7-1.2
	l0.1-0.4C750.4,393.2,749.9,392.4,749.1,392.3z"/>
<path class="st4" d="M740.6,392.5c0.1-0.6,0.5-1.2,1-1.6l-4.2-0.7c-0.8-0.1-1.5,0.4-1.7,1.2c0,0,0,0,0,0l-0.1,0.4
	c-0.1,0.8,0.4,1.5,1.2,1.7c0,0,0,0,0,0l4,0.7C740.6,393.7,740.5,393.1,740.6,392.5z"/>
<circle class="st3" cx="122.7" cy="112.2" r="6.2"/>
<circle class="st3" cx="243.5" cy="222.3" r="6.2"/>
<circle class="st3" cx="102.4" cy="197" r="6.2"/>
<circle class="st3" cx="660.3" cy="274.2" r="6.2"/>
<circle class="st3" cx="820.7" cy="309.7" r="6.2"/>
<g id="Plants_Wide_02" class="st5">
	<path id="Path-2" class="st6" d="M549.5,430.4c0,0-9.2-35.7-16.7-53.7c-9.5-22.8-24-36.4-20.4-48.6c2.8-9.8,16-7.8,22.6,1.5
		c4.3,6.2,8.1,12.7,11.5,19.4c0,0,0.6-20.4-10.9-43.3c-8.5-16.9-0.8-31,13-31.7s19.6,8.3,22,24c2.3,14.3-2,30.7-2,30.7
		s12.6-18.7,16.2-31.9c4.5-16.4-1-25.7-6.5-45.6c-5.3-19.2,15.7-31.7,30.2-23.7c18.3,10,28.6,16.8,34.1,3.5
		c6.7-16.2,11.1-25.8,26.5-28.9c21.6-4.3,32.2,12.3,33.7,30.6c1.2,14.9-17.6,31.2-17.6,31.2s15.7-3.5,25.2,8.9
		c10.5,13.7-0.1,30-9.8,36.2s-33.3,4.4-33.3,4.4s15,9.3,6.4,21.2c-7.6,10.5-20.5,5.4-30.8-0.9c-7.6-4.6-26.7-4.4-26.7-4.4
		s24,6.9,18.6,22.3c-4.7,13.7-20.5,11.6-31.8,10.6c-7.4-0.4-14.8,0.6-21.8,3c0,0,16.6,0.3,15.8,13.1s-12.4,16.7-23.7,17.2
		S553.9,413.4,549.5,430.4z"/>
</g>
<path class="st7" d="M555.3,50v366.8c0,10.1-8.2,18.2-18.2,18.2H382.5c-10.1,0-18.2-8.2-18.2-18.2V50c0-10.1,8.2-18.2,18.2-18.2
	h154.5C547.1,31.8,555.3,40,555.3,50z"/>
<path class="st8" d="M526,27.6H393.6c-19.1,0-34.7,15.5-34.7,34.7c0,0,0,0,0,0v342.4c0,19.1,15.5,34.7,34.7,34.7l0,0H526
	c19.1,0,34.7-15.5,34.7-34.7V62.3C560.6,43.1,545.1,27.6,526,27.6z M554.3,404.6c0,15.7-12.7,28.4-28.4,28.4c0,0,0,0,0,0H393.6
	c-15.7,0-28.4-12.7-28.4-28.4c0,0,0,0,0,0V62.3c0-15.7,12.7-28.3,28.4-28.3h10.1c4.4,0,7.9,3.5,7.9,7.9l0,0c0,4.4,3.6,7.9,7.9,7.9
	H500c4.4,0,7.9-3.6,7.9-7.9l0,0c0-4.4,3.6-7.9,7.9-7.9H526c15.7,0,28.4,12.7,28.4,28.4V404.6z"/>
<path class="st9" d="M429.8,40.3c0,1.9-1.6,3.5-3.5,3.5c-1.9,0-3.5-1.6-3.5-3.5c0-1.9,1.6-3.5,3.5-3.5c0,0,0,0,0,0
	C428.3,36.8,429.8,38.4,429.8,40.3C429.8,40.3,429.8,40.3,429.8,40.3z"/>
<path class="st9" d="M493,40.3c0,1.4-1.1,2.5-2.5,2.5c-1.4,0-2.4-1.1-2.4-2.4s1.1-2.4,2.4-2.5S493,39,493,40.3L493,40.3z"/>
<path class="st9" d="M500.7,40.3c0,0.8-0.6,1.5-1.5,1.5c-0.8,0-1.5-0.6-1.5-1.5c0-0.8,0.6-1.5,1.5-1.5c0,0,0,0,0,0
	C500,38.9,500.7,39.5,500.7,40.3C500.7,40.3,500.7,40.3,500.7,40.3z"/>
<path class="st9" d="M482,41.6h-44.4c-0.6,0-1.1-0.5-1.1-1.1c0,0,0,0,0,0l0,0c0-0.6,0.5-1.1,1.1-1.1H482c0.6,0,1.1,0.5,1.1,1.1l0,0
	C483.1,41.1,482.6,41.6,482,41.6z"/>
<polygon class="st1" points="411.1,239.7 413.5,233.5 416.2,239.6 422.9,240 417.8,244.4 419.5,250.9 413.8,247.5 408.1,251.1 
	409.6,244.6 404.4,240.3 "/>
<polygon class="st1" points="434.2,239.7 436.6,233.5 439.2,239.6 445.9,240 440.9,244.4 442.6,250.9 436.9,247.5 431.2,251.1 
	432.7,244.6 427.5,240.3 "/>
<polygon class="st1" points="457.2,239.7 459.6,233.5 462.3,239.6 469,240 464,244.4 465.7,250.9 459.9,247.5 454.3,251.1 
	455.8,244.6 450.6,240.3 "/>
<polygon class="st1" points="480.3,239.7 482.7,233.5 485.4,239.6 492.1,240 487,244.4 488.8,250.9 483,247.5 477.4,251.1 
	478.8,244.6 473.6,240.3 "/>
<polygon class="st1" points="503.4,239.7 505.8,233.5 508.5,239.6 515.2,240 510.1,244.4 511.9,250.9 506.1,247.5 500.4,251.1 
	501.9,244.6 496.7,240.3 "/>
<rect x="422.9" y="266" class="st10" width="69.2" height="13.6"/>
<rect x="393" y="304.3" class="st11" width="133.5" height="5.5"/>
<rect x="393" y="289.2" class="st11" width="133.5" height="5.5"/>
<rect x="393" y="321.6" class="st11" width="133.5" height="5.5"/>
<path class="st4" d="M409.6,350.8H510c3.9,0,7,3.1,7,7V377c0,3.9-3.1,7-7,7H409.6c-3.9,0-7-3.1-7-7v-19.1
	C402.6,354,405.7,350.8,409.6,350.8z"/>
<path class="st12" d="M530.4,183.2c0,16.5-31.6,29.8-70.6,29.8s-70.6-13.4-70.6-29.8s31.6-29.9,70.6-29.9S530.4,166.7,530.4,183.2z"
	/>
<path class="st6" d="M417.3,143h84.9c0.8,0,1.4,0.6,1.4,1.4V201c0,0.8-0.6,1.4-1.4,1.4h-84.9c-0.8,0-1.4-0.6-1.4-1.4v-56.6
	C415.9,143.6,416.5,143,417.3,143z"/>
<path class="st13" d="M513.5,146.2L407,146.5c-0.6,0-1.1-0.5-1.1-1.1c0-0.3,0.1-0.5,0.3-0.7L458,83.1c0.4-0.5,1.1-0.5,1.6-0.1
	c0,0,0.1,0.1,0.1,0.1l54.7,61.2c0.4,0.5,0.3,1.2-0.2,1.6C514,146.1,513.8,146.2,513.5,146.2z"/>
<path class="st2" d="M424.9,160.4h15.6c0.8,0,1.4,0.6,1.4,1.4v15.7c0,0.8-0.6,1.4-1.4,1.4h-15.6c-0.8,0-1.4-0.6-1.4-1.4v-15.7
	C423.5,161,424.1,160.4,424.9,160.4z"/>
<path class="st2" d="M472.5,156.9c-9.3,0-16.8,7.4-16.9,16.7v28.8h33.7v-28.7C489.3,164.4,481.8,156.9,472.5,156.9
	C472.5,156.9,472.5,156.9,472.5,156.9z"/>
<path id="Path_192" class="st1" d="M279.9,69.1l0.5-0.6c0.2-0.2,0.4-0.4,0.6-0.7l0.5-0.6c0.2-0.2,0.4-0.5,0.6-0.7l0.5-0.6l0.5-0.7
	l0.5-0.7l0.5-0.8l0.4-0.7c0.2-0.3,0.3-0.5,0.5-0.8s0.3-0.5,0.4-0.7l0.4-0.8c0.1-0.2,0.2-0.5,0.4-0.7s0.3-0.6,0.4-0.8l0.3-0.7
	c0.1-0.3,0.2-0.6,0.4-0.9s0.2-0.5,0.3-0.7s0.2-0.6,0.3-0.9s0.2-0.5,0.3-0.7s0.2-0.6,0.3-0.9s0.1-0.5,0.2-0.8s0.2-0.6,0.2-0.9
	s0.1-0.5,0.2-0.8s0.1-0.6,0.2-0.9s0.1-0.5,0.1-0.8s0.1-0.6,0.1-1s0.1-0.5,0.1-0.8s0.1-0.7,0.1-1s0-0.5,0.1-0.8s0-0.7,0-1
	s0-0.5,0-0.8s0-0.7,0-1.1V43c0-0.4,0-0.8-0.1-1.1s0-0.5,0-0.7c0-0.4-0.1-0.8-0.1-1.2l-0.1-0.6c-0.1-0.6-0.2-1.2-0.3-1.8
	c-0.1-0.6-0.2-1.2-0.4-1.8c0-0.2-0.1-0.4-0.2-0.6c-0.1-0.4-0.2-0.8-0.3-1.1s-0.1-0.5-0.2-0.8s-0.2-0.7-0.3-1s-0.2-0.5-0.3-0.8
	s-0.2-0.6-0.3-0.9s-0.2-0.5-0.3-0.8s-0.2-0.6-0.4-0.9s-0.2-0.5-0.4-0.8s-0.2-0.5-0.4-0.8s-0.3-0.5-0.4-0.8l-0.4-0.8l-0.5-0.8
	c-0.1-0.2-0.3-0.5-0.5-0.7l-0.5-0.7l-0.5-0.7c-0.2-0.2-0.3-0.5-0.5-0.7l-0.5-0.7c-0.2-0.2-0.4-0.5-0.6-0.7l-0.5-0.6
	c-0.2-0.2-0.4-0.5-0.6-0.7l-0.6-0.6l-0.6-0.7l-0.6-0.6c-0.2-0.2-0.4-0.4-0.6-0.6l-0.6-0.5l-0.7-0.6l-0.6-0.5l-0.7-0.6
	c-0.2-0.2-0.4-0.3-0.7-0.5l-0.7-0.5l-0.7-0.5l-0.8-0.5l-0.7-0.4l-0.8-0.5l-0.7-0.4l-0.8-0.4l-0.7-0.3l-0.8-0.4l-0.8-0.3l-0.8-0.3
	l-0.8-0.3l-0.9-0.3L264,8.9l-0.9-0.3l-0.8-0.2l-0.9-0.2L260.6,8l-0.9-0.2l-0.8-0.1L258,7.6l-0.7-0.1c-0.6-0.1-1.3-0.1-1.9-0.2h-0.9
	h-0.9c-0.3,0-0.6,0-0.9,0h-0.9l-0.9,0L250,7.5l-0.8,0.1l0,0c-0.7,0.1-1.4,0.2-2.2,0.3c-19.9,3.5-33.2,22.4-29.7,42.3
	s22.4,33.2,42.3,29.7l0,0l0,0c0.7-0.1,1.4-0.3,2.1-0.4l0,0l0.7-0.2l1-0.3l0.8-0.2l1-0.3l0.7-0.3l0.9-0.3l0.7-0.3
	c0.7-0.3,1.3-0.6,2-0.9l0.5-0.3c0.3-0.1,0.5-0.3,0.8-0.4s0.5-0.3,0.8-0.4s0.5-0.3,0.7-0.4s0.5-0.3,0.8-0.5s0.5-0.3,0.7-0.5l0.8-0.5
	l0.7-0.5l0.7-0.6c0.2-0.2,0.4-0.3,0.6-0.5l0.7-0.6l0.6-0.5c0.2-0.2,0.5-0.4,0.7-0.6s0.4-0.4,0.6-0.6S279.6,69.3,279.9,69.1z"/>
<path id="Path_193" class="st14" d="M226.1,48.6c-2.6-15.1,7.4-29.5,22.6-32.1s29.5,7.4,32.1,22.6c2.6,15.1-7.4,29.5-22.5,32.1l0,0
	C243.1,73.8,228.7,63.7,226.1,48.6C226.1,48.6,226.1,48.6,226.1,48.6z"/>
<g id="Group_117">
	<path id="Path_194" class="st1" d="M261.3,33.9c-0.5-0.4-1-0.7-1.5-0.9c-0.7-0.3-1.5-0.6-2.3-0.8c-0.9-0.2-1.8-0.4-2.7-0.5
		c-1-0.1-2-0.1-3,0l1.7,10.7h1c1.8,0.1,3.5,0.4,5.3,0.7c1.4,0.3,2.8,0.7,4.1,1.4c1.1,0.6,2.1,1.5,2.9,2.5c0.8,1.2,1.3,2.6,1.5,4.1
		c0.3,1.6,0.2,3.2-0.2,4.8c-0.4,1.4-1.1,2.6-2.1,3.7c-1.1,1.1-2.3,1.9-3.7,2.6c-1.5,0.7-3.2,1.2-4.8,1.5l0.9,5.4l-2.7,0.4l-0.9-5.5
		c-2.4,0.2-4.9,0.1-7.3-0.3c-2.3-0.4-4.6-1.3-6.6-2.4l1.8-5.3c0.6,0.4,1.2,0.8,1.8,1.1c0.9,0.4,1.8,0.7,2.7,1
		c1.1,0.3,2.2,0.5,3.4,0.7c1.2,0.2,2.5,0.2,3.7,0.2l-1.7-10.7c-0.2,0-0.4-0.1-0.7-0.1c-0.2,0-0.4,0-0.7-0.1c-1.7-0.2-3.4-0.4-5-0.8
		c-1.3-0.3-2.5-0.7-3.7-1.4c-1-0.6-1.8-1.4-2.4-2.3c-0.7-1.1-1.1-2.3-1.3-3.6c-0.3-1.5-0.2-3.1,0.2-4.6c0.4-1.4,1-2.7,1.9-3.8
		c0.9-1.1,2.1-2.1,3.4-2.8c1.4-0.8,3-1.4,4.5-1.7l-0.8-5.2l2.7-0.4l0.8,5.2c2.1-0.2,4.3-0.1,6.4,0.4c1.9,0.4,3.7,1.1,5.4,1.9
		L261.3,33.9z M244.5,37.9c0.1,1.3,0.9,2.4,2,3c1.6,0.7,3.2,1.1,4.9,1.2L249.9,32c-1.7,0.2-3.2,1-4.4,2.2
		C244.6,35.3,244.3,36.6,244.5,37.9z M262.1,52.7c-0.2-1.4-1.1-2.6-2.3-3.1c-1.7-0.7-3.5-1.1-5.4-1.3l1.6,10.2
		c1.8-0.2,3.5-0.9,4.9-2C261.9,55.5,262.4,54.1,262.1,52.7L262.1,52.7z"/>
</g>
<g id="Group_434">
	<g id="Group_433">
		<g id="Group_432">
			<path id="Path_813" class="st4" d="M594.1,185.5l-19.3,10.6l9.7-25.8"/>
		</g>
	</g>
	<path id="Path_814" class="st4" d="M654.1,152.6c0,23.2-18.3,41.9-40.9,41.9s-40.9-18.8-40.9-41.9s18.3-41.9,40.9-41.9
		S654.1,129.4,654.1,152.6z"/>
</g>
<path id="Path_815" class="st2" d="M601.2,174.5c9.7,0.2,19.5,0.3,28.4-0.3c2.8-0.2,5.3-4.4,1.8-5.8c1.4-0.7,2.9-1.4,3.5-2.9
	c0.6-1.4,0-3.1-1.5-3.7c-0.1,0-0.2-0.1-0.2-0.1c3.4,0.8,4.7-4.2,2.1-5.9c1.4-1,2.4-2.6,2.8-4.3c0.3-1.8-0.5-3.5-2-4.4
	c-1.1-0.5-2.3-0.7-3.5-0.6l-12.1-0.1c1.1-6,1.4-12.4-1.8-17.6c-1-1.6-3.6-3.5-5.6-2.2s-1.4,3.9-1.3,5.7c0.4,7.4-4.1,14.8-11,18.3
	C600.9,150.7,601.3,166.5,601.2,174.5z"/>
<rect id="Rectangle_204" x="588.2" y="150.7" class="st2" width="9.5" height="23.8"/>
<path id="Path_816" class="st4" d="M349,114.5c7.4-14,2.1-31.3-11.9-38.8c-14-7.4-31.3-2.1-38.8,11.9s-2.1,31.3,11.9,38.8
	c11,5.8,24.5,3.9,33.4-4.8l12,3.8L349,114.5z"/>
<path class="st2" d="M339.3,91.8c-3.6-4.2-10-4.7-14.2-1.1c0,0,0,0,0,0c-0.2,0.2-0.4,0.4-0.6,0.6l0,0c-4.1-3.8-10.4-3.6-14.3,0.4
	c-3.7,3.9-3.7,10,0.1,13.9l14.4,14.2l14.2-14.3l0,0C342.5,101.8,342.7,95.8,339.3,91.8z"/>
<path class="st1" d="M136,254.9c-4.8,0-8.6-3.5-8.6-7.9l0.3-38.9c0-4.4,4-7.8,8.7-7.8l71.2,0.6c4.8,0,8.6,3.5,8.6,7.9l-0.3,38.9
	c0,4.4-4,7.8-8.7,7.8l-32.2-0.3l-25.4,17.1c-0.7,0.5-1.7,0.3-2.2-0.4c-0.2-0.3-0.3-0.6-0.3-0.9l0.1-16L136,254.9z"/>
<path class="st1" d="M150.2,268.1l23.3-15.7c0.3-0.2,0.6-0.3,0.9-0.3l32.7,0.3c3.1,0,5.6-2.1,5.6-4.7l0.3-38.9
	c0-2.6-2.4-4.8-5.5-4.8l-71.2-0.6c-3.1,0-5.6,2.1-5.6,4.7l-0.3,38.9c0,2.6,2.4,4.8,5.5,4.8l12.8,0.1c0.9,0,1.5,0.7,1.5,1.6
	c0,0,0,0,0,0L150.2,268.1z"/>
<path class="st2" d="M140.6,236.8c-0.9-0.1-1.5-0.8-1.4-1.7c0.1-0.8,0.7-1.4,1.4-1.4l55.1,0.5c0.9,0.1,1.5,0.8,1.4,1.7
	c-0.1,0.8-0.7,1.4-1.4,1.4L140.6,236.8z"/>
<path class="st2" d="M140.8,221.7c-0.9,0-1.6-0.7-1.6-1.6s0.7-1.6,1.6-1.6l55.1,0.5c0.9,0,1.6,0.7,1.6,1.6s-0.7,1.6-1.6,1.6
	L140.8,221.7z"/>
<path class="st1" d="M221.8,217.5h-2.9l-0.3,37c0,2.6-2.5,4.7-5.6,4.7l-32.7-0.3c-0.3,0-0.6,0.1-0.9,0.3l-9.4,6.3l13,0.1
	c0.3,0,0.6,0.1,0.9,0.3l23,16.1l0.1-14.6c0-0.9,0.7-1.5,1.5-1.5c0,0,0,0,0,0l12.8,0.1c3.1,0,5.6-2.1,5.6-4.7l0.3-38.9
	C227.4,219.7,224.9,217.5,221.8,217.5z"/>
</svg>
