<svg width="248" height="248" viewBox="0 0 248 248" fill="none" xmlns="http://www.w3.org/2000/svg">
<path d="M83.7033 107.145C83.7033 116.508 86.4798 125.661 91.6818 133.446C96.8838 141.232 104.278 147.3 112.928 150.883C121.579 154.466 131.097 155.404 140.281 153.577C149.464 151.75 157.9 147.241 164.521 140.62C171.141 134 175.65 125.564 177.477 116.381C179.304 107.197 178.366 97.6786 174.783 89.028C171.2 80.3775 165.132 72.9837 157.347 67.7817C149.561 62.5798 140.408 59.8032 131.045 59.8032C118.495 59.8227 106.465 64.8167 97.5909 73.6908C88.7168 82.5648 83.7228 94.5951 83.7033 107.145V107.145ZM146.826 96.6245H136.305C136.305 95.5841 135.997 94.5671 135.419 93.7021C134.841 92.8371 134.019 92.1629 133.058 91.7647C132.097 91.3666 131.039 91.2624 130.019 91.4654C128.998 91.6684 128.061 92.1693 127.325 92.905C126.59 93.6406 126.089 94.5779 125.886 95.5983C125.683 96.6187 125.787 97.6763 126.185 98.6375C126.583 99.5987 127.258 100.42 128.123 100.998C128.988 101.576 130.005 101.885 131.045 101.885C134.763 101.878 138.364 103.187 141.209 105.58C144.054 107.973 145.961 111.296 146.591 114.961C147.221 118.625 146.534 122.394 144.651 125.6C142.769 128.806 139.812 131.243 136.305 132.478V138.706H125.785V132.478C122.719 131.394 120.062 129.389 118.179 126.737C116.296 124.086 115.278 120.917 115.264 117.665H125.785C125.785 118.706 126.093 119.723 126.671 120.588C127.249 121.453 128.071 122.127 129.032 122.525C129.993 122.923 131.051 123.027 132.071 122.824C133.092 122.621 134.029 122.12 134.764 121.385C135.5 120.649 136.001 119.712 136.204 118.691C136.407 117.671 136.303 116.613 135.905 115.652C135.507 114.691 134.832 113.87 133.967 113.292C133.102 112.714 132.085 112.405 131.045 112.405C127.327 112.412 123.726 111.103 120.881 108.71C118.036 106.317 116.129 102.993 115.499 99.3292C114.869 95.6649 115.556 91.8959 117.439 88.6897C119.321 85.4835 122.278 83.047 125.785 81.8118V75.5838H136.305V81.8118C139.371 82.8959 142.028 84.9008 143.911 87.5523C145.794 90.2038 146.812 93.3723 146.826 96.6245V96.6245Z" fill="#EAB98F"/>
<path d="M11 130.816H26.7806V210.846H11V130.816Z" fill="#4CAE86"/>
<path d="M224.98 137.015C222.891 137.02 220.839 137.571 219.029 138.615L169.466 167.251C170.742 170.282 171.246 173.583 170.934 176.858C170.622 180.132 169.504 183.278 167.679 186.013C165.854 188.748 163.38 190.987 160.479 192.529C157.577 194.071 154.339 194.868 151.055 194.848H103.129V186.849H151.055C154.229 186.839 157.271 185.572 159.516 183.324C161.761 181.076 163.026 178.03 163.036 174.85C163.027 172.392 162.275 169.994 160.879 167.971C160.435 167.382 159.955 166.821 159.442 166.291C158.339 165.193 157.03 164.324 155.591 163.734C154.151 163.143 152.61 162.844 151.055 162.852H103.129C102.07 162.844 101.055 162.429 100.293 161.692L87.3534 148.734C85.5062 146.861 83.3041 145.376 80.8764 144.366C78.4487 143.357 75.8441 142.843 73.2154 142.855H35.2344V195.848L86.1154 210.366C87.1773 210.687 88.2809 210.849 89.3903 210.846H138.794C140.895 210.836 142.958 210.285 144.784 209.246L231.01 159.372C233.297 158.053 235.084 156.013 236.092 153.571C237.101 151.129 237.274 148.421 236.586 145.87C235.898 143.318 234.386 141.067 232.287 139.465C230.188 137.864 227.619 137.002 224.98 137.015Z" fill="#E0CAB8"/>
<path d="M193.458 61.4242L200.509 69.4838L196.479 73.0092L189.429 64.9496L193.458 61.4242Z" fill="#EAB98F"/>
<path d="M173.19 38.2522L180.241 46.3118L176.211 49.8372L169.16 41.7776L173.19 38.2522Z" fill="#EAB98F"/>
<path d="M199.634 40.0186L203.159 44.0484L195.099 51.0992L191.574 47.0694L199.634 40.0186Z" fill="#EAB98F"/>
</svg>
