<svg width="248" height="248" viewBox="0 0 248 248" fill="none" xmlns="http://www.w3.org/2000/svg">
<path d="M208.7 55.6071L217.118 63.3441L213.249 67.5532L204.831 59.8161L208.7 55.6071Z" fill="#EAB98F"/>
<path d="M184.501 33.3622L192.919 41.0992L189.05 45.3083L180.632 37.5713L184.501 33.3622Z" fill="#EAB98F"/>
<path d="M212.772 32.1713L216.982 36.0398L209.244 44.4579L205.035 40.5894L212.772 32.1713Z" fill="#EAB98F"/>
<path d="M65.1765 39.2249V86.2544L93.3139 61.7347V39.2249C93.3139 35.895 90.6143 33.1954 87.2844 33.1954H71.2059C67.8761 33.1954 65.1765 35.895 65.1765 39.2249Z" fill="#4C4843"/>
<path d="M123.461 36.009L51.1078 94.6955V198.402C51.1078 201.732 53.8074 204.431 57.1372 204.431H189.785C193.114 204.431 195.814 201.732 195.814 198.402V94.6955L123.461 36.009Z" fill="#4CAE86"/>
<path d="M189.785 204.431C193.114 204.431 195.814 201.732 195.814 198.402V94.6955L123.461 36.009V204.431H189.785Z" fill="#4CAE86"/>
<path d="M211.889 115.999C210.568 115.999 209.238 115.567 208.126 114.678L123.461 46.946L38.796 114.678C36.1953 116.758 32.4012 116.336 30.3214 113.737C28.2413 111.136 28.6629 107.342 31.2628 105.262L119.694 34.5169C121.897 32.7551 125.026 32.7551 127.228 34.5169L215.659 105.262C218.26 107.342 218.681 111.136 216.601 113.737C215.41 115.225 213.657 115.999 211.889 115.999V115.999Z" fill="#EAB98F"/>
<path d="M208.126 114.678C209.237 115.568 210.568 116 211.888 116C213.657 116 215.41 115.225 216.6 113.737C218.68 111.137 218.259 107.342 215.659 105.262L127.227 34.5171C126.126 33.636 124.794 33.1954 123.461 33.1954V46.9461L208.126 114.678Z" fill="#EAB98F"/>
<path d="M123.461 239C122.877 239 122.293 238.915 121.728 238.746C108.771 234.859 97.6536 227.067 89.5786 216.214C81.5035 205.361 77.2351 192.473 77.2351 178.946V144.539C77.2351 141.209 79.9347 138.51 83.2645 138.51C90.8837 138.51 97.7336 134.276 101.141 127.462L101.989 125.765C103.011 123.721 105.098 122.431 107.382 122.431H139.539C141.823 122.431 143.911 123.721 144.932 125.764L145.781 127.462C149.188 134.276 156.038 138.51 163.657 138.51C166.987 138.51 169.686 141.209 169.686 144.539V178.946C169.686 192.473 165.418 205.361 157.343 216.214C149.268 227.067 138.15 234.859 125.193 238.746C124.628 238.915 124.044 239 123.461 239V239Z" fill="#98BCE5"/>
<path d="M163.657 138.51C156.038 138.51 149.188 134.276 145.781 127.462L144.932 125.765C143.911 123.721 141.823 122.431 139.539 122.431H123.461V239C124.044 239 124.628 238.915 125.193 238.746C138.151 234.859 149.268 227.067 157.343 216.214C165.418 205.361 169.686 192.473 169.686 178.946V144.539C169.686 141.209 166.987 138.51 163.657 138.51Z" fill="#98BCE5"/>
<path d="M89.2943 150.007V178.946C89.2943 200.755 102.949 219.699 123.461 226.643C143.973 219.699 157.628 200.755 157.628 178.946V150.007C148.503 148.284 140.57 142.691 135.872 134.49H111.051C106.352 142.691 98.4192 148.284 89.2943 150.007V150.007Z" fill="#EFEFEF"/>
<path d="M117.776 198.114C116.233 198.114 114.69 197.526 113.513 196.348L102.144 184.979C99.7894 182.624 99.7894 178.807 102.144 176.452C104.498 174.097 108.316 174.097 110.671 176.452L117.777 183.557L136.252 165.083C138.606 162.728 142.424 162.728 144.779 165.083C147.133 167.437 147.133 171.255 144.779 173.61L122.04 196.348C120.863 197.526 119.32 198.114 117.776 198.114V198.114Z" fill="#4CAE86"/>
</svg>
