<svg width="51" height="51" viewBox="0 0 51 51" fill="none" xmlns="http://www.w3.org/2000/svg">
<path d="M41.9 19.7689V7H37.8V10.8947H13.2V7H9.1V19.7689C6.6605 21.1184 5 23.6013 5 26.4737V34.2632C5 34.7796 5.21598 35.275 5.60043 35.6402C5.98488 36.0054 6.50631 36.2105 7.05 36.2105H9.1V44H13.2V36.2105H37.8V44H41.9V36.2105H43.95C44.4937 36.2105 45.0151 36.0054 45.3996 35.6402C45.784 35.275 46 34.7796 46 34.2632V26.4737C46 23.6013 44.3374 21.1184 41.9 19.7689ZM37.8 14.7895V18.6842H27.55V14.7895H37.8ZM13.2 14.7895H23.45V18.6842H13.2V14.7895ZM41.9 32.3158H9.1V26.4737C9.1 24.3257 10.9388 22.5789 13.2 22.5789H37.8C40.0611 22.5789 41.9 24.3257 41.9 26.4737V32.3158Z" fill="#B8BFBF"/>
</svg>
