<?xml version="1.0" encoding="UTF-8"?>
<svg width="767px" height="608px" viewBox="0 0 767 608" version="1.1" xmlns="http://www.w3.org/2000/svg" xmlns:xlink="http://www.w3.org/1999/xlink">
    <title>Desktop</title>
    <g id="Desktop" stroke="none" stroke-width="1" fill="none" fill-rule="evenodd">
        <path d="M400.782032,211.416532 C388.426816,164.188864 349.967069,129.391414 303.535878,124.772375 C299.836101,124.404361 296.400769,124.235675 293.251996,124.195681 C170.112315,122.627833 32.2721163,311.83814 86.1903959,448.346051 C111.57561,512.61459 179.922284,566.359744 248.196781,568.140789 C331.729249,570.319842 349.257274,492.993753 436.085021,495.659836 C513.882927,498.046603 533.895693,561.171429 613.429233,550.020712 C624.543615,548.46254 682.747383,540.302055 705.456509,493.646889 C719.896267,463.980665 718.442278,421.920671 699.704746,391.972228 C652.084933,315.860164 527.71271,373.724104 447.588545,296.337701 C422.495419,272.101372 408.57288,241.19661 400.782032,211.416532 Z" id="Path_763" fill="#EAF3F2"></path>
        <g id="Group-5" transform="translate(67.000000, 280.000000)" fill="#B5BBE3">
            <g id="Group_100" transform="translate(22.000000, 31.000000)">
                <path d="M152.890211,95.9637191 C131.493577,93.9653779 110.139835,87.7224883 89.4217782,77.408107 C72.854887,69.1617391 56.655772,58.3057124 41.2738305,45.1456856 C15.0874644,22.7414047 0.147558577,1.11475585 0,0.898675585 L0.837979079,0.320749164 C0.985217573,0.535545151 15.8643075,22.0700468 41.956249,44.3879599 C66.0178996,64.9685619 104.812362,90.4486957 152.984316,94.9475318 L152.890211,95.9637191 Z" id="Path_139"></path>
            </g>
            <path d="M23,33 C23,33 -7.41556347,9.65571662 1.70687867,1.17293214 C10.8293208,-7.30985233 23,33 23,33 Z" id="Path_140"></path>
            <path d="M43,56.994357 C43,56.994357 4.57718543,57.6278354 6.04077589,45.4710687 C7.50436635,33.314302 43,56.994357 43,56.994357 Z" id="Path_141"></path>
            <path d="M66,78.087346 C66,78.087346 27.9392212,82.7764949 28,70.8970105 C28.0609246,59.017526 66,78.087346 66,78.087346 Z" id="Path_142"></path>
            <path d="M65.6786898,79 C65.6786898,79 46.3499261,46.4120935 57.4247565,41.408649 C68.4995869,36.4052045 65.6786898,79 65.6786898,79 Z" id="Path_143"></path>
            <path d="M89,95.1045006 C89,95.1045006 52.2138459,103.569038 51.0264659,91.553143 C49.8390859,79.5372478 89,95.1045006 89,95.1045006 Z" id="Path_144"></path>
            <path d="M88.6413808,96 C88.6413808,96 69.3167444,63.3674737 80.4635044,58.4028507 C91.6102644,53.4382276 88.6413808,96 88.6413808,96 Z" id="Path_145"></path>
            <path d="M118,111 C118,111 87.5846359,87.6560857 96.706789,79.1730036 C105.828942,70.6899214 118,111 118,111 Z" id="Path_146"></path>
            <path d="M117,109.604629 C117,109.604629 82.7765678,125.485506 79.2173054,113.563323 C75.6580431,101.641141 117,109.604629 117,109.604629 Z" id="Path_147"></path>
            <path d="M146,121 C146,121 115.584437,97.6557166 124.706879,89.1729321 C133.829321,80.6901477 146,121 146,121 Z" id="Path_148"></path>
            <path d="M146,120.515985 C146,120.515985 113.198255,139.797821 108.381137,128.391913 C103.564018,116.986005 146,120.515985 146,120.515985 Z" id="Path_149"></path>
            <path d="M43.3913767,57 C43.3913767,57 28.6326534,22.2872315 40.8252379,19.1694168 C53.0178225,16.0516021 43.3913767,57 43.3913767,57 Z" id="Path_150"></path>
        </g>
        <g id="Group" transform="translate(572.000000, 130.000000)">
            <g id="Group_453" fill="#BCE0E9">
                <path d="M136.981929,79.4313569 L136.981929,57.5494149 L123.853457,57.5494149 C122.416833,50.228717 119.534991,43.2679342 115.376461,37.0741361 L124.656273,27.7966369 L109.185292,12.3233415 L99.9054788,21.6043111 C93.7119807,17.4447449 86.7511411,14.5620922 79.4302001,13.1250007 L79.4302001,0 L57.5494149,0 L57.5494149,13.1261575 C50.2284288,14.5630999 43.2675607,17.4457645 37.0741361,21.6054679 L27.7943233,12.3244983 L12.3233415,27.7966369 L21.6043111,37.0764497 C17.444388,43.2697565 14.5617045,50.2306704 13.1250007,57.5517285 L0,57.5517285 L0,79.4336705 L13.1261575,79.4336705 C14.5626227,86.7548006 17.4453251,93.7157602 21.6054679,99.9089492 L12.3244983,109.189919 L27.7977937,124.663214 L37.0776065,115.382245 C43.2714281,119.541207 50.2321421,122.423808 57.5528853,123.861555 L57.5528853,136.987713 L79.4348272,136.987713 L79.4348272,123.855771 C86.7555524,122.417965 93.716255,119.535368 99.910106,115.376461 L109.189919,124.65743 L124.663214,109.184135 L115.383401,99.9031652 C119.542151,93.7094848 122.424013,86.7486563 123.860398,79.4278865 L136.981929,79.4313569 Z" id="Path_826"></path>
            </g>
            <g id="Group_451-Copy" transform="translate(42.288139, 42.288139)" fill="#FFFFFF">
                <circle id="Ellipse_49" cx="26.7118615" cy="26.7118615" r="26"></circle>
            </g>
        </g>
        <g id="Group-2" transform="translate(395.000000, 29.000000)" fill="#BCE0E9">
            <g id="Group_450" fill-rule="nonzero">
                <path d="M186.921633,108.389266 L186.921633,78.5323678 L169.009107,78.5323678 C167.047451,68.5440917 163.114044,59.0471647 157.438897,50.5969308 L170.102808,37.9330194 L148.989765,16.8176742 L136.325854,29.4815855 C127.875467,23.8057002 118.378091,19.8718778 108.389266,17.9102244 L108.389266,0 L78.5300653,0 L78.5300653,17.9102244 C68.54148,19.8714897 59.0444055,23.805349 50.5946282,29.4815855 L37.9307169,16.8176742 L16.8153717,37.9330194 L29.479283,50.5969308 C23.8040537,59.0471208 19.8706398,68.5440649 17.9090731,78.5323678 L0,78.5323678 L0,108.391568 L17.9102244,108.391568 C19.8721492,118.38012 23.8055286,127.877372 29.4804343,136.328157 L16.816523,148.992068 L37.9318682,170.105111 L50.5957795,157.441199 C59.0459549,163.116456 68.5429046,167.049872 78.5312166,169.011409 L78.5312166,186.922785 L108.390417,186.922785 L108.390417,169.009107 C118.378978,167.047211 127.876235,163.11383 136.327005,157.438897 L148.990917,170.102808 L170.103959,148.989765 L157.440048,136.325854 C163.114899,127.87504 167.048274,118.377799 169.010258,108.389266 L186.921633,108.389266 Z M93.4596655,146.698749 C71.9260474,146.700611 52.5117325,133.730506 44.269883,113.836572 C36.0280335,93.9426372 40.5818067,71.0428032 55.8077155,55.8155772 C71.0336244,40.5883512 93.9330645,36.0325972 113.827712,44.2727258 C133.722359,52.5128544 146.694144,71.9260473 146.694144,93.4596655 C146.694144,122.861264 122.861264,146.696841 93.4596655,146.698749 L93.4596655,146.698749 Z" id="Path_825"></path>
            </g>
            <g id="Group_451" transform="translate(52.288139, 52.288139)">
                <circle id="Ellipse_49" cx="41.1715269" cy="41.1715269" r="41.1715269"></circle>
            </g>
        </g>
        <g id="Plants-2" transform="translate(541.169054, 295.186000)">
            <path d="M5.45566844,209.814 C5.45566844,209.814 -8.36060358,184.978112 11.7678572,159.737732 C31.896318,134.497352 46.5875376,119.908704 42.8905495,96.0084727 C39.1935615,72.1082411 41.6488891,56.3048926 52.7852647,45.0188846 C63.9216402,33.7328766 61.3139044,28.7663722 69.9234139,20.1413849 C78.5329233,11.5163977 95.8309456,2.814 95.8309456,2.814 C95.8309456,2.814 73.6359538,34.8518087 79.3907639,57.4688023 C85.145574,80.0857959 83.3409362,96.9009871 73.4129401,112.691791 C63.484944,128.482595 67.8220466,159.828605 41.6361365,176.328035 C15.4502265,192.827466 5.45566844,209.814 5.45566844,209.814 Z" id="Path_764" fill="#ADC6DF"></path>
            <path d="M6.22931635,213.814 C5.72614684,208.810045 5.80093004,203.765249 6.45220428,198.778215 C7.11373612,193.797493 8.47244098,188.933227 10.4888495,184.32672 C11.0264934,183.192476 11.5351588,182.046583 12.1323011,180.9433 C12.7215309,179.836442 13.3562836,178.755538 14.0365594,177.700589 C15.4217458,175.605374 16.9208898,173.586893 18.527304,171.654148 L28.070175,159.934035 C31.2470216,156.023958 34.4207853,152.109897 37.5402914,148.151691 C39.1045145,146.176063 40.6489049,144.184187 42.1734624,142.176064 C43.6929846,140.163854 45.1915437,138.133251 46.584362,136.022637 C49.3013106,131.755417 51.5874429,127.231601 53.4094184,122.517162 C53.656044,121.934713 53.8462541,121.333563 54.0642095,120.741304 L54.6961877,118.956862 L55.2621935,117.150962 C55.4514787,116.549199 55.6447716,115.948356 55.8032285,115.337704 C56.1374063,114.121304 56.4814491,112.907663 56.7589029,111.677468 C56.9025623,111.064363 57.060711,110.451258 57.1904978,109.836314 L57.5758503,107.985043 C58.5848575,103.043111 59.1958725,98.0368032 59.7248845,93.0344803 C60.2181358,88.0343033 60.7628702,83.0181855 60.7789009,77.9695732 C60.80418,75.4475662 60.674085,72.9237199 60.4542799,70.4133619 C60.2344748,67.9030038 59.8993722,65.4095062 59.7276591,62.9135561 C59.3979892,57.9143592 59.8631448,52.8947379 61.1059881,48.0396312 C62.3162931,43.1713214 64.1420951,38.4751374 66.5397676,34.0632919 C68.9487665,29.6523341 71.774698,25.4795098 74.9792971,21.6013217 L76.1609422,20.1298699 L77.4101011,18.7154369 L78.6626511,17.3052956 C79.0834561,16.83719 79.4873056,16.354983 79.9364725,15.9123213 L82.5719758,13.2066894 L83.232316,12.532274 L83.9207098,11.8854483 L85.2978057,10.5914904 L86.6749017,9.29753252 C86.9054966,9.0829458 87.1314674,8.86345425 87.36607,8.65377237 L88.0812844,8.03576263 L90.9427584,5.56433678 C91.8820938,4.7228503 92.8898679,3.96351988 93.8714379,3.17138835 L96.8309456,0.814 L93.8486251,3.14165276 C92.8599645,3.92428116 91.8447917,4.67441501 90.8955913,5.50639836 L88.0072967,7.95054105 L87.2853001,8.56211319 C87.0482312,8.76995575 86.8197942,8.98760799 86.586733,9.20004884 L85.1954561,10.4814381 L83.8035626,11.7631339 L83.1074617,12.4041351 L82.4394145,13.0736456 L79.7718499,15.7575123 C79.3177505,16.1958823 78.9086602,16.6771697 78.4816895,17.1403704 L77.2115675,18.5431544 L75.9451448,19.949004 L74.7450028,21.4115657 C71.5019541,25.2867949 68.6391547,29.4616408 66.1957248,33.8790539 C63.7556383,38.3096387 61.8899571,43.0298197 60.6432568,47.9268199 C59.3541926,52.8253844 58.8644705,57.8979921 59.1927897,62.9509555 C59.3608034,65.4717363 59.6949812,67.9655405 59.9058461,70.4614906 C60.116711,72.9574406 60.2449564,75.4613611 60.2141282,77.9668142 C60.1891573,82.9780271 59.6376407,87.9745255 59.135141,92.9737829 C58.5981136,97.965683 57.9778501,102.951759 56.9679181,107.864262 L56.5881147,109.705416 C56.4589445,110.318521 56.3029538,110.925494 56.1614523,111.535534 C55.8886227,112.759291 55.5476627,113.965269 55.2181092,115.173698 C55.0621185,115.780672 54.8709836,116.377223 54.6838564,116.975307 L54.1252493,118.769865 L53.5012864,120.542045 C53.285489,121.130319 53.0986701,121.729322 52.8538941,122.306254 C51.0551411,126.985746 48.7960846,131.477176 46.1096076,135.715165 C44.73282,137.810144 43.2425846,139.837989 41.7320025,141.846214 C40.2214204,143.854439 38.6760025,145.844271 37.1167119,147.821228 C34.0010079,151.777185 30.8613607,155.715566 27.6977703,159.636372 L18.2208717,171.409826 C16.6172394,173.361789 15.1219042,175.399303 13.7415334,177.513285 C13.0620798,178.578248 12.4288685,179.670597 11.8418994,180.790331 C11.2481482,181.904955 10.7376331,183.058819 10.2104708,184.205938 C8.23160154,188.8516 6.91575203,193.749606 6.30114607,198.757676 C5.69922891,203.757266 5.67512864,208.808957 6.22931635,213.814 L6.22931635,213.814 Z" id="Path_765" fill="#FFFFFF"></path>
            <path d="M53.6070384,177.353444 C54.997185,166.168421 63.1462238,152.789745 81.1497261,146.229608 C99.1532284,139.66947 104.338839,124.138781 105.432985,111.959648 C106.527131,99.7805162 115.830946,81.814 115.830946,81.814 C115.830946,81.814 115.67113,81.9180951 115.340928,82.1149574 C115.278742,82.1553708 115.207541,82.1967027 115.129498,82.2426271 C113.546889,83.1831573 109.220054,85.6076558 101.489831,88.9016549 C91.4469471,93.1796592 89.1771931,106.410152 80.3431861,110.559569 C71.5091791,114.708985 65.0562374,120.156835 59.2475326,128.163895 C53.4388279,136.170955 48.5473525,140.74563 32.5546035,145.949469 C16.5618545,151.153308 9.83094564,183.944198 9.83094564,183.944198 C10.1972155,184.847785 10.5859757,185.697589 10.9972261,186.493611 C11.0079512,186.518256 11.0200971,186.542278 11.0336043,186.565559 C22.8866951,209.414137 52.2240431,188.503259 53.6070384,177.353444 Z" id="Path_766" fill="#B5BBE3"></path>
            <path d="M11.8681331,186.814 C15.9459447,184.295021 19.899075,181.591894 23.727524,178.704619 C29.0065299,174.700087 33.9865627,170.321095 38.6285392,165.602009 C40.9527554,163.247276 43.1694379,160.786055 45.3256908,158.284516 C47.4850427,155.788825 49.640056,153.291287 51.9469181,150.943324 C54.2466526,148.584897 56.674064,146.353887 59.1953738,144.225671 C61.6976869,142.084076 64.3102096,140.072878 67.0224044,138.200187 C68.3915228,137.283346 69.7910108,136.417595 71.2171499,135.590314 C72.643289,134.763034 74.0991781,133.940677 75.469536,132.986289 C76.8385958,132.035671 78.1405153,130.99308 79.366162,129.865828 C79.9875025,129.311846 80.5772336,128.727086 81.1778111,128.1571 L82.915705,126.379431 C85.1925473,123.961003 87.2480397,121.346036 89.0578338,118.565508 C90.8759907,115.797442 92.4781505,112.911193 94.1711096,110.084036 C97.5378735,104.419821 101.283739,98.9864748 105.383439,93.8206478 C108.663166,89.6518267 112.145668,85.6496108 115.830946,81.814 C115.768967,81.8546254 115.698,81.8961741 115.620217,81.9423393 C111.940311,85.6609982 108.448822,89.5566238 105.145749,93.6292161 C100.987451,98.7718191 97.1837079,104.18753 93.7604981,109.83936 L91.2109878,114.079789 L89.9323589,116.193232 C89.4938568,116.889403 89.0612427,117.589268 88.6075557,118.272205 C86.8060619,121.019222 84.7630978,123.60236 82.5026143,125.991336 L80.771848,127.75023 C80.1749892,128.3156 79.588667,128.892973 78.9744541,129.435876 C77.7638712,130.542763 76.4789793,131.566704 75.1286509,132.500631 C73.7812253,133.429782 72.3470289,134.23675 70.9109732,135.066185 C69.4749174,135.89562 68.0549762,136.762911 66.6722225,137.687446 C63.9461516,139.580548 61.3207075,141.612696 58.806455,143.775714 C56.2829759,145.919318 53.8459577,148.170642 51.540955,150.550304 C49.2235564,152.922581 47.0663738,155.435507 44.9172486,157.936738 C42.7681233,160.437969 40.5768522,162.905653 38.2833156,165.274852 C33.694261,170.016159 28.7688637,174.424643 23.5449955,178.466407 C19.7785256,181.408669 15.8738423,184.167297 11.8309456,186.74229 C11.8419349,186.766887 11.8543516,186.790831 11.8681331,186.814 L11.8681331,186.814 Z" id="Path_767" fill="#FFFFFF"></path>
        </g>
        <g id="Plants-3" transform="translate(67.169054, 362.186000)" fill="#ADC6DF">
            <path d="M157.830946,143.102439 C157.830946,143.102439 150.021838,61.3398927 133.694036,40.010493 C117.366235,18.6810933 94.6481909,47.1202929 118.785711,111.108492 C118.785711,111.108492 66.2513236,-28.9546578 38.5643474,6.59311748 C10.8773712,42.1408928 61.9919768,88.3556633 78.3200838,104.708111 C78.3200838,104.708111 4.48896223,49.9628663 0.938895427,89.7775621 C-2.61117138,129.592258 82.5794306,143.814 82.5794306,143.814 L157.830946,143.102439 Z" id="Path_768"></path>
        </g>
        <polygon id="Path_769" fill="#404884" points="417.403979 543.174781 417.403979 464.186 338.934129 464.186 338.934129 543.174781 299.169054 559.186 457.169054 559.186"></polygon>
        <path d="M180.653725,216.186 L575.684384,216.186 C580.922623,216.186 585.169054,220.409897 585.169054,225.620337 L585.169054,511.751663 C585.169054,514.253804 584.169779,516.653465 582.391059,518.422747 C580.612338,520.192028 578.199875,521.186 575.684384,521.186 L180.653725,521.186 C178.138234,521.186 175.725771,520.192028 173.94705,518.422747 C172.168329,516.653465 171.169054,514.253804 171.169054,511.751663 L171.169054,225.620337 C171.169054,220.409897 175.415486,216.186 180.653725,216.186 Z" id="Path_1643" fill="#404884"></path>
        <path d="M578.169054,237.466496 L578.169054,491.905504 C578.169054,495.427932 576.776306,498.806354 574.29489,501.297116 C571.813475,503.787878 568.447686,505.186 564.938394,505.186 L191.400327,505.186 C187.891204,505.186 184.525777,503.786926 182.044423,501.296341 C179.563069,498.805756 178.169054,495.427764 178.169054,491.905504 L178.169054,237.466496 C178.169054,230.132394 184.093578,224.186 191.400327,224.186 L564.938701,224.186 C568.447715,224.186 571.813,225.585211 574.29419,228.075804 C576.77538,230.566398 578.169054,233.944346 578.169054,237.466496 Z" id="Path_770" fill="#00A178"></path>
        <path d="M178.169054,267.186 L578.169054,267.186 L578.169054,489.186 C578.169054,498.022556 571.00561,505.186 562.169054,505.186 L194.169054,505.186 C185.332498,505.186 178.169054,498.022556 178.169054,489.186 L178.169054,267.186 L178.169054,267.186 Z" id="Rectangle" fill="#BCE0E9"></path>
        <g id="Group_416" transform="translate(200.169054, 241.186000)" fill="#FFFFFF">
            <path d="M4.83046078,9.814 C3.49184539,9.81281261 2.21291956,9.28300201 1.29497678,8.3493827 C-0.65706474,6.36360252 -0.65706474,3.26443855 1.29497678,1.27865837 C2.21223857,0.344019138 3.49168601,-0.186 4.83061025,-0.186 C6.16953449,-0.186 7.44898193,0.344019138 8.36624371,1.27865837 C10.3191796,3.26409839 10.3191796,6.36394268 8.36624371,8.3493827 C7.44829207,9.28315967 6.16920217,9.81299344 4.83046078,9.814 Z" id="Path_773"></path>
            <path d="M18.8304608,9.814 C17.4918454,9.81281261 16.2129196,9.28300201 15.2949768,8.3493827 C13.3429353,6.36360252 13.3429353,3.26443855 15.2949768,1.27865837 C16.2122386,0.344019138 17.491686,-0.186 18.8306102,-0.186 C20.1695345,-0.186 21.4489819,0.344019138 22.3662437,1.27865837 C24.3191796,3.26409839 24.3191796,6.36394268 22.3662437,8.3493827 C21.4482921,9.28315967 20.1692022,9.81299344 18.8304608,9.814 Z" id="Path_774"></path>
            <path d="M32.8304608,9.814 C31.4918454,9.81281261 30.2129196,9.28300201 29.2949768,8.3493827 C27.3429353,6.36360252 27.3429353,3.26443855 29.2949768,1.27865837 C30.2122386,0.344019138 31.491686,-0.186 32.8306102,-0.186 C34.1695345,-0.186 35.4489819,0.344019138 36.3662437,1.27865837 C38.3191796,3.26409839 38.3191796,6.36394268 36.3662437,8.3493827 C35.4482921,9.28315967 34.1692022,9.81299344 32.8304608,9.814 Z" id="Path_775"></path>
        </g>
        <g id="Group-3" transform="translate(229.000000, 318.000000)" font-family="Bahnschrift" font-size="100" font-weight="normal">
            <text id="404-copy" fill="#F4A36D">
                <tspan x="60.5273438" y="79">404</tspan>
            </text>
            <text id="404" fill="#E70437">
                <tspan x="67.5273438" y="79">404</tspan>
            </text>
        </g>
        <text id="Page-Error" font-family="Bahnschrift" font-size="40" font-weight="normal" fill="#E70437">
            <tspan x="281.525391" y="456">Page Error</tspan>
        </text>
        <g id="Group-4" transform="translate(267.000000, 164.000000)">
            <circle id="Oval" stroke="#F4A36D" stroke-width="6" fill="#FFFFFF" cx="32" cy="40" r="29"></circle>
            <text id="!" font-family="Avenir-Heavy, Avenir" font-size="60" font-weight="600" fill="#FF9F62">
                <tspan x="23.12" y="60">!</tspan>
            </text>
        </g>
    </g>
</svg>