<svg width="51" height="51" viewBox="0 0 51 51" fill="none" xmlns="http://www.w3.org/2000/svg">
<path d="M26 8C20.7923 8 16.5556 12.0138 16.5556 16.9474C16.5556 21.8809 20.7923 25.8947 26 25.8947C31.2077 25.8947 35.4444 21.8809 35.4444 16.9474C35.4444 12.0138 31.2077 8 26 8ZM26 22.3158C22.8758 22.3158 20.3333 19.9072 20.3333 16.9474C20.3333 13.9876 22.8758 11.5789 26 11.5789C29.1242 11.5789 31.6667 13.9876 31.6667 16.9474C31.6667 19.9072 29.1242 22.3158 26 22.3158ZM43 42V40.2105C43 33.3049 37.067 27.6842 29.7778 27.6842H22.2222C14.9311 27.6842 9 33.3049 9 40.2105V42H12.7778V40.2105C12.7778 35.2769 17.0146 31.2632 22.2222 31.2632H29.7778C34.9854 31.2632 39.2222 35.2769 39.2222 40.2105V42H43Z" fill="#B8BFBF"/>
</svg>
