<svg width="767" height="490" viewBox="0 0 767 490" fill="none" xmlns="http://www.w3.org/2000/svg">
<path opacity="0.15" d="M46.6 489.8C46.6 489.8 -6.99999 459 0.800007 392.5C8.80001 323.8 39.9 351.4 109.9 281.4C143.5 247.8 135.4 218.8 149.7 181.1C166.8 135.9 235.6 53.6 320.7 59C422.2 65.4 341.9 135.1 475.9 135.1C583.1 135.1 635.9 156.9 653.1 258.5C663.3 319 810.4 365.1 731.4 486.5L46.6 489.8Z" fill="#90CFC5"/>
<path d="M561.4 2.8C546.9 -4.1 529.7 2.1 522.8 16.6C515.9 31.1 523.9 69.4 528.8 71.7C533.7 74 568.3 56 575.2 41.5C582.1 27 575.9 9.7 561.4 2.8Z" fill="#F4A36D"/>
<path d="M565.5 36.8C561.2 45.9 550.3 49.8 541.2 45.5C532.1 41.2 528.2 30.3 532.5 21.2C536.8 12.1 547.7 8.2 556.8 12.5C565.9 16.8 569.8 27.7 565.5 36.8Z" fill="#E3EEE6"/>
<path d="M88.9 327.6L88.4 335.2L92.5 341.7L84.8 341.2L78.4 345.3L78.9 337.7L74.8 331.2L82.4 331.7L88.9 327.6Z" fill="#33A9C0"/>
<path d="M542.1 86.4L544.3 91.4L549 94.1L544 96.3L541.3 101L539.1 96L534.4 93.3L539.4 91.1L542.1 86.4Z" fill="#00A178"/>
<path d="M711.6 204.4L713.8 209.4L718.5 212.1L713.5 214.3L710.8 219L708.6 214L703.9 211.3L708.9 209.1L711.6 204.4Z" fill="#00A178"/>
<path d="M676.1 285.1L678.3 290.1L683 292.8L678 295L675.3 299.7L673.1 294.7L668.4 292L673.4 289.8L676.1 285.1Z" fill="#00A178"/>
<path d="M733.6 123.6L735.8 128.6L740.5 131.4L735.5 133.5L732.8 138.3L730.6 133.3L725.9 130.5L730.9 128.4L733.6 123.6Z" fill="#00A178"/>
<g opacity="0.4">
<path opacity="0.4" d="M274.3 280.3C277.8 287.5 281.2 295.3 284.5 303.6C291.5 321.7 297.4 340.2 302.3 359.1C304 365.7 305.5 371.9 306.8 377.5C307.2 379.4 307.6 381.2 307.9 382.7L308.2 384.1C308.2 384.3 308.3 384.5 308.3 384.6C308.4 385 308.1 385.4 307.7 385.5C307.3 385.6 306.9 385.3 306.8 384.9C306.8 384.8 306.8 384.7 306.7 384.4C306.6 384 306.5 383.6 306.4 383C306.1 381.5 305.7 379.8 305.3 377.9C304.1 372.4 302.6 366.2 300.8 359.6C296 340.8 290.1 322.4 283.1 304.3C276.7 287.9 269.8 273.6 262.4 261.9C261.3 260.1 260.2 258.4 259.1 256.7C258.1 258.2 256.6 259.3 254.8 259.7C250.4 261.1 242.1 258.3 244.4 255.6C246.2 253.4 255 254.9 258.3 255.5C250.3 243.6 243.2 235 236.8 229.1C234.7 227.1 232.5 225.3 230.1 223.7C229.6 223.3 229 223 228.4 222.7L228 222.5H227.9C227.8 222.5 227.7 222.4 227.7 222.4C227.6 222.4 227.6 222.4 227.5 222.2V222.1V221.9V221.8C221.8 219.6 210.6 214.1 197.9 201.4C179.7 183.2 196.4 177.3 200.7 180.1C210.3 186.3 225.1 215.2 230.5 222.1L230.9 222.3C233.4 223.9 235.7 225.8 237.9 227.9C238.5 228.4 239 229 239.6 229.5C238 226.8 233.6 218.9 231.8 212.6C229.6 204.8 228.1 193.6 230 186.9C231.9 180.2 241.3 181.2 242.5 195.5C243.7 208.7 240.7 227.5 240.2 230.2C247.2 237.2 255.1 247.3 263.8 261.1C267.5 267.1 271 273.2 274 279.5C273.1 276.2 270.5 266.9 269.3 261.8C267.3 252.8 270.8 242.5 276.5 247.7C283.4 254 275.3 277.4 274.3 280.3ZM228.5 222.1C228.3 222.2 228.1 222.3 227.9 222.3C228.2 222.3 228.4 222.2 228.5 222.1ZM228 222.3C227.9 222.3 227.9 222.3 228 222.3V222.3ZM239.2 231.7C239.2 231.7 231.9 249.1 221.1 253.8C212.7 257.5 215.5 244.2 222.6 237.9C229.7 231.6 239.2 231.7 239.2 231.7ZM254.3 246.9C254.3 246.9 252.4 237.6 252.8 230.6C253.2 223.6 260.3 206.6 264.5 213.2C268.7 219.8 254.3 246.9 254.3 246.9ZM275.9 287.4C275.9 287.4 271 289.9 266.5 289.8C262 289.7 255.5 283.5 258.7 279.7C261.9 275.9 275.9 287.3 275.9 287.4Z" fill="#75C1D8"/>
</g>
<g opacity="0.4">
<path opacity="0.4" d="M298.7 417.8C298.7 417.8 291.8 392.4 277.6 377.1C263.4 361.8 255.6 364.5 245.7 368.6C236.1 372.7 230.1 377.1 223.8 369.1C217.7 361.3 225.5 354.6 225.5 354.6C225.5 354.6 202.5 365.9 193.1 346.6C185.4 330.9 194.5 317.9 203.5 314.1C216.5 308.6 229 317.7 229 317.7C229 317.7 226.8 301.9 245.5 302.1C261.8 302.2 266.5 330.7 266.5 330.7C266.5 330.7 270.8 314.2 285.6 323.6C298 331.5 303.7 354.6 305.1 374.4C306.1 388.3 298.7 417.8 298.7 417.8Z" fill="#75C1D8"/>
</g>
<path d="M122 121.3C122.6 121.4 123.1 121.7 123.5 122.2L124.2 118C124.3 117.2 123.8 116.5 123 116.3L122.6 116.2C121.8 116.1 121.1 116.6 120.9 117.4L120.2 121.6C120.8 121.4 121.4 121.2 122 121.3Z" fill="#00A178"/>
<path d="M121.2 126.1C120.6 126 120.1 125.7 119.7 125.2L119 129.2C118.9 130 119.4 130.7 120.2 130.9L120.6 131C121.4 131.1 122.1 130.6 122.3 129.8L123 125.8C122.4 126 121.8 126.2 121.2 126.1Z" fill="#00A178"/>
<path d="M127.8 123L123.6 122.3C124 122.8 124.2 123.5 124 124.2C123.9 124.8 123.6 125.3 123.1 125.6L127.1 126.3C127.9 126.4 128.6 125.9 128.8 125.1L128.9 124.7C129 123.9 128.5 123.2 127.8 123Z" fill="#00A178"/>
<path d="M119.2 123.3C119.3 122.7 119.7 122.1 120.2 121.7L116 121C115.2 120.9 114.5 121.4 114.3 122.2L114.2 122.6C114.1 123.4 114.6 124.1 115.4 124.3L119.4 125C119.2 124.4 119.1 123.8 119.2 123.3Z" fill="#00A178"/>
<path d="M642.8 128.6C643.4 128.7 643.9 129 644.3 129.5L645 125.3C645.1 124.5 644.6 123.8 643.8 123.6L643.4 123.5C642.6 123.4 641.9 123.9 641.7 124.7L641 129C641.5 128.7 642.2 128.5 642.8 128.6Z" fill="#00A178"/>
<path d="M641.9 133.4C641.3 133.3 640.7 132.9 640.4 132.4L639.7 136.4C639.6 137.2 640.1 137.9 640.9 138.1L641.3 138.2C642.1 138.3 642.8 137.8 643 137L643.7 133C643.2 133.3 642.5 133.5 641.9 133.4Z" fill="#00A178"/>
<path d="M648.5 130.3L644.3 129.6C644.7 130.1 644.9 130.8 644.7 131.4C644.6 132 644.3 132.5 643.8 132.8L647.8 133.5C648.6 133.6 649.3 133.1 649.5 132.3L649.6 131.9C649.7 131.2 649.2 130.5 648.5 130.3Z" fill="#00A178"/>
<path d="M640 130.6C640.1 130 640.5 129.4 641 129L636.8 128.3C636 128.2 635.3 128.7 635.1 129.5L635 129.9C634.9 130.7 635.4 131.4 636.2 131.6L640.2 132.3C639.9 131.7 639.9 131.1 640 130.6Z" fill="#00A178"/>
<path d="M683.4 390.6C684 390.7 684.6 391 684.9 391.5L685.6 387.3C685.7 386.5 685.2 385.8 684.4 385.6L684 385.5C683.2 385.4 682.5 385.9 682.3 386.7L681.6 390.9C682.2 390.6 682.8 390.5 683.4 390.6Z" fill="#00A178"/>
<path d="M682.6 395.3C682 395.2 681.5 394.9 681.1 394.3L680.4 398.3C680.3 399.1 680.8 399.8 681.6 400L682 400.1C682.8 400.2 683.5 399.7 683.7 399L684.4 395C683.8 395.3 683.2 395.4 682.6 395.3Z" fill="#00A178"/>
<path d="M689.1 392.3L684.9 391.6C685.3 392.1 685.5 392.8 685.3 393.5C685.2 394.1 684.9 394.6 684.4 394.9L688.4 395.6C689.2 395.7 689.9 395.2 690.1 394.4L690.2 394C690.4 393.2 689.9 392.4 689.1 392.3Z" fill="#00A178"/>
<path d="M680.6 392.5C680.7 391.9 681.1 391.3 681.6 390.9L677.4 390.2C676.6 390.1 675.9 390.6 675.7 391.4L675.6 391.8C675.5 392.6 676 393.3 676.8 393.5L680.8 394.2C680.6 393.7 680.5 393.1 680.6 392.5Z" fill="#00A178"/>
<path d="M62.7 118.4C66.1242 118.4 68.9 115.624 68.9 112.2C68.9 108.776 66.1242 106 62.7 106C59.2758 106 56.5 108.776 56.5 112.2C56.5 115.624 59.2758 118.4 62.7 118.4Z" fill="#33A9C0"/>
<path d="M183.5 228.5C186.924 228.5 189.7 225.724 189.7 222.3C189.7 218.876 186.924 216.1 183.5 216.1C180.076 216.1 177.3 218.876 177.3 222.3C177.3 225.724 180.076 228.5 183.5 228.5Z" fill="#33A9C0"/>
<path d="M42.4 203.2C45.8242 203.2 48.6 200.424 48.6 197C48.6 193.576 45.8242 190.8 42.4 190.8C38.9759 190.8 36.2 193.576 36.2 197C36.2 200.424 38.9759 203.2 42.4 203.2Z" fill="#33A9C0"/>
<path d="M600.3 280.4C603.724 280.4 606.5 277.624 606.5 274.2C606.5 270.776 603.724 268 600.3 268C596.876 268 594.1 270.776 594.1 274.2C594.1 277.624 596.876 280.4 600.3 280.4Z" fill="#33A9C0"/>
<path d="M760.7 315.9C764.124 315.9 766.9 313.124 766.9 309.7C766.9 306.276 764.124 303.5 760.7 303.5C757.276 303.5 754.5 306.276 754.5 309.7C754.5 313.124 757.276 315.9 760.7 315.9Z" fill="#33A9C0"/>
<g opacity="0.4">
<path opacity="0.4" d="M489.5 430.4C489.5 430.4 480.3 394.7 472.8 376.7C463.3 353.9 448.8 340.3 452.4 328.1C455.2 318.3 468.4 320.3 475 329.6C479.3 335.8 483.1 342.3 486.5 349C486.5 349 487.1 328.6 475.6 305.7C467.1 288.8 474.8 274.7 488.6 274C502.4 273.3 508.2 282.3 510.6 298C512.9 312.3 508.6 328.7 508.6 328.7C508.6 328.7 521.2 310 524.8 296.8C529.3 280.4 523.8 271.1 518.3 251.2C513 232 534 219.5 548.5 227.5C566.8 237.5 577.1 244.3 582.6 231C589.3 214.8 593.7 205.2 609.1 202.1C630.7 197.8 641.3 214.4 642.8 232.7C644 247.6 625.2 263.9 625.2 263.9C625.2 263.9 640.9 260.4 650.4 272.8C660.9 286.5 650.3 302.8 640.6 309C630.9 315.2 607.3 313.4 607.3 313.4C607.3 313.4 622.3 322.7 613.7 334.6C606.1 345.1 593.2 340 582.9 333.7C575.3 329.1 556.2 329.3 556.2 329.3C556.2 329.3 580.2 336.2 574.8 351.6C570.1 365.3 554.3 363.2 543 362.2C535.6 361.8 528.2 362.8 521.2 365.2C521.2 365.2 537.8 365.5 537 378.3C536.2 391.1 524.6 395 513.3 395.5C502 396 493.9 413.4 489.5 430.4Z" fill="#75C1D8"/>
</g>
<path d="M495.3 50V416.8C495.3 426.9 487.1 435 477.1 435H322.5C312.4 435 304.3 426.8 304.3 416.8V50C304.3 39.9 312.5 31.8 322.5 31.8H477C487.1 31.8 495.3 40 495.3 50Z" fill="white"/>
<path d="M466 27.6H333.6C314.5 27.6 298.9 43.1 298.9 62.3V404.7C298.9 423.8 314.4 439.4 333.6 439.4H466C485.1 439.4 500.7 423.9 500.7 404.7V62.3C500.6 43.1 485.1 27.6 466 27.6ZM494.3 404.6C494.3 420.3 481.6 433 465.9 433H333.6C317.9 433 305.2 420.3 305.2 404.6V62.3C305.2 46.6 317.9 34 333.6 34H343.7C348.1 34 351.6 37.5 351.6 41.9C351.6 46.3 355.2 49.8 359.5 49.8H440C444.4 49.8 447.9 46.2 447.9 41.9C447.9 37.5 451.5 34 455.8 34H466C481.7 34 494.4 46.7 494.4 62.4V404.6H494.3Z" fill="#072844"/>
<path d="M369.8 40.3C369.8 42.2 368.2 43.8 366.3 43.8C364.4 43.8 362.8 42.2 362.8 40.3C362.8 38.4 364.4 36.8 366.3 36.8C368.3 36.8 369.8 38.4 369.8 40.3Z" fill="#474961"/>
<path d="M433 40.3C433 41.7 431.9 42.8 430.5 42.8C429.1 42.8 428.1 41.7 428.1 40.4C428.1 39.1 429.2 38 430.5 37.9C431.8 37.8 433 39 433 40.3Z" fill="#474961"/>
<path d="M440.7 40.3C440.7 41.1 440.1 41.8 439.2 41.8C438.4 41.8 437.7 41.2 437.7 40.3C437.7 39.5 438.3 38.8 439.2 38.8C440 38.9 440.7 39.5 440.7 40.3Z" fill="#474961"/>
<path d="M422 41.6H377.6C377 41.6 376.5 41.1 376.5 40.5C376.5 39.9 377 39.4 377.6 39.4H422C422.6 39.4 423.1 39.9 423.1 40.5C423.1 41.1 422.6 41.6 422 41.6Z" fill="#474961"/>
<path d="M351.1 239.7L353.5 233.5L356.2 239.6L362.9 240L357.8 244.4L359.5 250.9L353.8 247.5L348.1 251.1L349.6 244.6L344.4 240.3L351.1 239.7Z" fill="#F4A36D"/>
<path d="M374.2 239.7L376.6 233.5L379.2 239.6L385.9 240L380.9 244.4L382.6 250.9L376.9 247.5L371.2 251.1L372.7 244.6L367.5 240.3L374.2 239.7Z" fill="#F4A36D"/>
<path d="M397.2 239.7L399.6 233.5L402.3 239.6L409 240L404 244.4L405.7 250.9L399.9 247.5L394.3 251.1L395.8 244.6L390.6 240.3L397.2 239.7Z" fill="#F4A36D"/>
<path d="M420.3 239.7L422.7 233.5L425.4 239.6L432.1 240L427 244.4L428.8 250.9L423 247.5L417.4 251.1L418.8 244.6L413.6 240.3L420.3 239.7Z" fill="#F4A36D"/>
<path d="M443.4 239.7L445.8 233.5L448.5 239.6L455.2 240L450.1 244.4L451.9 250.9L446.1 247.5L440.4 251.1L441.9 244.6L436.7 240.3L443.4 239.7Z" fill="#F4A36D"/>
<path opacity="0.4" d="M432.1 266H362.9V279.6H432.1V266Z" fill="#75C1D8"/>
<path d="M466.5 304.3H333V309.8H466.5V304.3Z" fill="#C7DEF3"/>
<path d="M466.5 289.2H333V294.7H466.5V289.2Z" fill="#C7DEF3"/>
<path d="M466.5 321.6H333V327.1H466.5V321.6Z" fill="#C7DEF3"/>
<path d="M349.6 350.8H450C453.9 350.8 457 353.9 457 357.8V377C457 380.9 453.9 384 450 384H349.6C345.7 384 342.6 380.9 342.6 377V357.9C342.6 354 345.7 350.8 349.6 350.8Z" fill="#00A178"/>
<path opacity="0.1" d="M470.4 183.2C470.4 199.7 438.8 213 399.8 213C360.8 213 329.2 199.6 329.2 183.2C329.2 166.8 360.8 153.3 399.8 153.3C438.8 153.3 470.4 166.7 470.4 183.2Z" fill="#007697"/>
<path d="M357.3 143H442.2C443 143 443.6 143.6 443.6 144.4V201C443.6 201.8 443 202.4 442.2 202.4H357.3C356.5 202.4 355.9 201.8 355.9 201V144.4C355.9 143.6 356.5 143 357.3 143Z" fill="#75C1D8"/>
<path d="M453.5 146.2L347 146.5C346.4 146.5 345.9 146 345.9 145.4C345.9 145.1 346 144.9 346.2 144.7L398 83.1C398.4 82.6 399.1 82.6 399.6 83L399.7 83.1L454.4 144.3C454.8 144.8 454.7 145.5 454.2 145.9C454 146.1 453.8 146.2 453.5 146.2Z" fill="#299783"/>
<path d="M364.9 160.4H380.5C381.3 160.4 381.9 161 381.9 161.8V177.5C381.9 178.3 381.3 178.9 380.5 178.9H364.9C364.1 178.9 363.5 178.3 363.5 177.5V161.8C363.5 161 364.1 160.4 364.9 160.4Z" fill="#E3EEE6"/>
<path d="M412.5 156.9C403.2 156.9 395.7 164.3 395.6 173.6V202.4H429.3V173.7C429.3 164.4 421.8 156.9 412.5 156.9Z" fill="#E3EEE6"/>
<path d="M219.9 69.1L220.4 68.5C220.6 68.3 220.8 68.1 221 67.8L221.5 67.2C221.7 67 221.9 66.7 222.1 66.5L222.6 65.9L223.1 65.2L223.6 64.5L224.1 63.7L224.5 63C224.7 62.7 224.8 62.5 225 62.2C225.2 61.9 225.3 61.7 225.4 61.5L225.8 60.7C225.9 60.5 226 60.2 226.2 60C226.4 59.8 226.5 59.4 226.6 59.2L226.9 58.5C227 58.2 227.1 57.9 227.3 57.6C227.5 57.3 227.5 57.1 227.6 56.9C227.7 56.7 227.8 56.3 227.9 56C228 55.7 228.1 55.5 228.2 55.3C228.3 55.1 228.4 54.7 228.5 54.4C228.6 54.1 228.6 53.9 228.7 53.6C228.8 53.3 228.9 53 228.9 52.7C228.9 52.4 229 52.2 229.1 51.9C229.2 51.6 229.2 51.3 229.3 51C229.4 50.7 229.4 50.5 229.4 50.2C229.4 49.9 229.5 49.6 229.5 49.2C229.5 48.8 229.6 48.7 229.6 48.4C229.6 48.1 229.7 47.7 229.7 47.4C229.7 47.1 229.7 46.9 229.8 46.6C229.9 46.3 229.8 45.9 229.8 45.6C229.8 45.3 229.8 45.1 229.8 44.8C229.8 44.5 229.8 44.1 229.8 43.7V43C229.8 42.6 229.8 42.2 229.7 41.9C229.6 41.6 229.7 41.4 229.7 41.2C229.7 40.8 229.6 40.4 229.6 40L229.5 39.4C229.4 38.8 229.3 38.2 229.2 37.6C229.1 37 229 36.4 228.8 35.8C228.8 35.6 228.7 35.4 228.6 35.2C228.5 34.8 228.4 34.4 228.3 34.1C228.2 33.8 228.2 33.6 228.1 33.3C228 33 227.9 32.6 227.8 32.3C227.7 32 227.6 31.8 227.5 31.5C227.4 31.2 227.3 30.9 227.2 30.6C227.1 30.3 227 30.1 226.9 29.8C226.8 29.5 226.7 29.2 226.5 28.9C226.3 28.6 226.3 28.4 226.1 28.1C225.9 27.8 225.9 27.6 225.7 27.3C225.5 27 225.4 26.8 225.3 26.5L224.9 25.7L224.4 24.9C224.3 24.7 224.1 24.4 223.9 24.2L223.4 23.5L222.9 22.8C222.7 22.6 222.6 22.3 222.4 22.1L221.9 21.4C221.7 21.2 221.5 20.9 221.3 20.7L220.8 20.1C220.6 19.9 220.4 19.6 220.2 19.4L219.6 18.8L219 18.1L218.4 17.5C218.2 17.3 218 17.1 217.8 16.9L217.2 16.4L216.5 15.8L215.9 15.3L215.2 14.7C215 14.5 214.8 14.4 214.5 14.2L213.8 13.7L213.1 13.2L212.3 12.7L211.6 12.3L210.8 11.8L210.1 11.4L209.3 11L208.6 10.7L207.8 10.3L207 9.99999L206.2 9.69999L205.4 9.39999L204.5 9.09999L204 8.89999L203.1 8.59999L202.3 8.39999L201.4 8.19999L200.6 7.99999L199.7 7.79999L198.9 7.69999L198 7.59999L197.3 7.49999C196.7 7.39999 196 7.39999 195.4 7.29999H194.5H193.6C193.3 7.29999 193 7.29999 192.7 7.29999H191.8H190.9L190 7.49999L189.2 7.59999C188.5 7.69999 187.8 7.79999 187 7.89999C167.1 11.4 153.8 30.3 157.3 50.2C160.8 70.1 179.7 83.4 199.6 79.9C200.3 79.8 201 79.6 201.7 79.5L202.4 79.3L203.4 79L204.2 78.8L205.2 78.5L205.9 78.2L206.8 77.9L207.5 77.6C208.2 77.3 208.8 77 209.5 76.7L210 76.4C210.3 76.3 210.5 76.1 210.8 76C211.1 75.9 211.3 75.7 211.6 75.6C211.9 75.5 212.1 75.3 212.3 75.2C212.5 75.1 212.8 74.9 213.1 74.7C213.4 74.5 213.6 74.4 213.8 74.2L214.6 73.7L215.3 73.2L216 72.6C216.2 72.4 216.4 72.3 216.6 72.1L217.3 71.5L217.9 71C218.1 70.8 218.4 70.6 218.6 70.4C218.8 70.2 219 70 219.2 69.8C219.4 69.6 219.6 69.3 219.9 69.1Z" fill="#F4A36D"/>
<path d="M166.1 48.6C163.5 33.5 173.5 19.1 188.7 16.5C203.9 13.9 218.2 23.9 220.8 39.1C223.4 54.2 213.4 68.6 198.3 71.2C183.1 73.8 168.7 63.7 166.1 48.6Z" fill="#FAD5C6"/>
<path d="M201.3 33.9C200.8 33.5 200.3 33.2 199.8 33C199.1 32.7 198.3 32.4 197.5 32.2C196.6 32 195.7 31.8 194.8 31.7C193.8 31.6 192.8 31.6 191.8 31.7L193.5 42.4H194.5C196.3 42.5 198 42.8 199.8 43.1C201.2 43.4 202.6 43.8 203.9 44.5C205 45.1 206 46 206.8 47C207.6 48.2 208.1 49.6 208.3 51.1C208.6 52.7 208.5 54.3 208.1 55.9C207.7 57.3 207 58.5 206 59.6C204.9 60.7 203.7 61.5 202.3 62.2C200.8 62.9 199.1 63.4 197.5 63.7L198.4 69.1L195.7 69.5L194.8 64C192.4 64.2 189.9 64.1 187.5 63.7C185.2 63.3 182.9 62.4 180.9 61.3L182.7 56C183.3 56.4 183.9 56.8 184.5 57.1C185.4 57.5 186.3 57.8 187.2 58.1C188.3 58.4 189.4 58.6 190.6 58.8C191.8 59 193.1 59 194.3 59L192.6 48.3C192.4 48.3 192.2 48.2 191.9 48.2C191.7 48.2 191.5 48.2 191.2 48.1C189.5 47.9 187.8 47.7 186.2 47.3C184.9 47 183.7 46.6 182.5 45.9C181.5 45.3 180.7 44.5 180.1 43.6C179.4 42.5 179 41.3 178.8 40C178.5 38.5 178.6 36.9 179 35.4C179.4 34 180 32.7 180.9 31.6C181.8 30.5 183 29.5 184.3 28.8C185.7 28 187.3 27.4 188.8 27.1L188 21.9L190.7 21.5L191.5 26.7C193.6 26.5 195.8 26.6 197.9 27.1C199.8 27.5 201.6 28.2 203.3 29L201.3 33.9ZM184.5 37.9C184.6 39.2 185.4 40.3 186.5 40.9C188.1 41.6 189.7 42 191.4 42.1L189.9 32C188.2 32.2 186.7 33 185.5 34.2C184.6 35.3 184.3 36.6 184.5 37.9ZM202.1 52.7C201.9 51.3 201 50.1 199.8 49.6C198.1 48.9 196.3 48.5 194.4 48.3L196 58.5C197.8 58.3 199.5 57.6 200.9 56.5C201.9 55.5 202.4 54.1 202.1 52.7Z" fill="#F4A36D"/>
<path d="M534.1 185.5L514.8 196.1L524.5 170.3" fill="#00A178"/>
<path d="M594.1 152.6C594.1 175.8 575.8 194.5 553.2 194.5C530.6 194.5 512.3 175.7 512.3 152.6C512.3 129.5 530.6 110.7 553.2 110.7C575.8 110.7 594.1 129.4 594.1 152.6Z" fill="#00A178"/>
<path d="M541.2 174.5C550.9 174.7 560.7 174.8 569.6 174.2C572.4 174 574.9 169.8 571.4 168.4C572.8 167.7 574.3 167 574.9 165.5C575.5 164.1 574.9 162.4 573.4 161.8C573.3 161.8 573.2 161.7 573.2 161.7C576.6 162.5 577.9 157.5 575.3 155.8C576.7 154.8 577.7 153.2 578.1 151.5C578.4 149.7 577.6 148 576.1 147.1C575 146.6 573.8 146.4 572.6 146.5L560.5 146.4C561.6 140.4 561.9 134 558.7 128.8C557.7 127.2 555.1 125.3 553.1 126.6C551.1 127.9 551.7 130.5 551.8 132.3C552.2 139.7 547.7 147.1 540.8 150.6C540.9 150.7 541.3 166.5 541.2 174.5Z" fill="#E3EEE6"/>
<path d="M537.7 150.7H528.2V174.5H537.7V150.7Z" fill="#E3EEE6"/>
<path d="M289 114.5C296.4 100.5 291.1 83.2 277.1 75.7C263.1 68.3 245.8 73.6 238.3 87.6C230.8 101.6 236.2 118.9 250.2 126.4C261.2 132.2 274.7 130.3 283.6 121.6L295.6 125.4L289 114.5Z" fill="#00A178"/>
<path d="M279.3 91.8C275.7 87.6 269.3 87.1 265.1 90.7C264.9 90.9 264.7 91.1 264.5 91.3C260.4 87.5 254.1 87.7 250.2 91.7C246.5 95.6 246.5 101.7 250.3 105.6L264.7 119.8L278.9 105.5C282.5 101.8 282.7 95.8 279.3 91.8Z" fill="#E3EEE6"/>
<path d="M76 254.9C71.2 254.9 67.4 251.4 67.4 247L67.7 208.1C67.7 203.7 71.7 200.3 76.4 200.3L147.6 200.9C152.4 200.9 156.2 204.4 156.2 208.8L155.9 247.7C155.9 252.1 151.9 255.5 147.2 255.5L115 255.2L89.6 272.3C88.9 272.8 87.9 272.6 87.4 271.9C87.2 271.6 87.1 271.3 87.1 271L87.2 255L76 254.9Z" fill="#F4A36D"/>
<path d="M90.2 268.1L113.5 252.4C113.8 252.2 114.1 252.1 114.4 252.1L147.1 252.4C150.2 252.4 152.7 250.3 152.7 247.7L153 208.8C153 206.2 150.6 204 147.5 204L76.3 203.4C73.2 203.4 70.7 205.5 70.7 208.1L70.4 247C70.4 249.6 72.8 251.8 75.9 251.8L88.7 251.9C89.6 251.9 90.2 252.6 90.2 253.5V268.1Z" fill="#F4A36D"/>
<path d="M80.6 236.8C79.7 236.7 79.1 236 79.2 235.1C79.3 234.3 79.9 233.7 80.6 233.7L135.7 234.2C136.6 234.3 137.2 235 137.1 235.9C137 236.7 136.4 237.3 135.7 237.3L80.6 236.8Z" fill="#E3EEE6"/>
<path d="M80.8 221.7C79.9 221.7 79.2 221 79.2 220.1C79.2 219.2 79.9 218.5 80.8 218.5L135.9 219C136.8 219 137.5 219.7 137.5 220.6C137.5 221.5 136.8 222.2 135.9 222.2L80.8 221.7Z" fill="#E3EEE6"/>
<path d="M161.8 217.5H158.9L158.6 254.5C158.6 257.1 156.1 259.2 153 259.2L120.3 258.9C120 258.9 119.7 259 119.4 259.2L110 265.5L123 265.6C123.3 265.6 123.6 265.7 123.9 265.9L146.9 282L147 267.4C147 266.5 147.7 265.9 148.5 265.9L161.3 266C164.4 266 166.9 263.9 166.9 261.3L167.2 222.4C167.4 219.7 164.9 217.5 161.8 217.5Z" fill="#F4A36D"/>
</svg>
