<svg width="164" height="164" viewBox="0 0 164 164" fill="none" xmlns="http://www.w3.org/2000/svg">
<path d="M53 17H59V30H53V17Z" fill="#B3B3B3"/>
<path d="M73.2143 33H39.7857C38.2473 33 37 31.806 37 30.3333V19.6667C37 18.194 38.2473 17 39.7857 17H48.1429V22.3333H42.5714V27.6667H70.4286V22.3333H64.8571V17H73.2143C74.7527 17 76 18.194 76 19.6667V30.3333C76 31.806 74.7527 33 73.2143 33Z" fill="#808080"/>
<path d="M104 17H110V30H104V17Z" fill="#B3B3B3"/>
<path d="M124.214 33H90.7857C89.2473 33 88 31.806 88 30.3333V19.6667C88 18.194 89.2473 17 90.7857 17H99.1429V22.3333H93.5714V27.6667H121.429V22.3333H115.857V17H124.214C125.753 17 127 18.194 127 19.6667V30.3333C127 31.806 125.753 33 124.214 33Z" fill="#808080"/>
<path d="M29 31H134V146H126L121.5 137.342H43.5L38 146H29V31Z" fill="#4CAE86"/>
<path d="M29 31H134V59H29V31Z" fill="#EAB98F"/>
<path d="M48.5 39C50.9851 39 53 41.0149 53 43.5C53 45.9851 50.9851 48 48.5 48C46.0149 48 44 45.9851 44 43.5C44 41.0149 46.0149 39 48.5 39Z" fill="white"/>
<path d="M65.5 39C67.9851 39 70 41.0149 70 43.5C70 45.9851 67.9851 48 65.5 48C63.0149 48 61 45.9851 61 43.5C61 41.0149 63.0149 39 65.5 39Z" fill="white"/>
<path d="M99.5 39C101.985 39 104 41.0149 104 43.5C104 45.9851 101.985 48 99.5 48C97.0149 48 95 45.9851 95 43.5C95 41.0149 97.0149 39 99.5 39Z" fill="white"/>
<path d="M116.5 39C118.985 39 121 41.0149 121 43.5C121 45.9851 118.985 48 116.5 48C114.015 48 112 45.9851 112 43.5C112 41.0149 114.015 39 116.5 39Z" fill="white"/>
<rect x="39" y="68" width="86" height="58" fill="#E2E1E0"/>
<rect x="44" y="75" width="77" height="4" fill="#808080"/>
<rect x="44" y="85" width="76" height="33" fill="#EAB98F"/>
</svg>
