<svg width="252" height="117" viewBox="0 0 252 117" fill="none" xmlns="http://www.w3.org/2000/svg">
<path fill-rule="evenodd" clip-rule="evenodd" d="M71.5 71.5C62.3628 71.5023 48 76 48 93.5C48 110.5 61.5 116 71.5 116C81.5 116 95 110.5 95 93.5C95 76 80.6372 71.5023 71.5 71.5ZM55.5 93.5C55.5 81 66.5 78.5 71.5 78.5C76.5 78.5 87.5 81 87.5 93.5C87.5 105.5 77.5 109.5 71.5 109.5C65.5 109.5 55.5 105.5 55.5 93.5Z" fill="#4FAF88"/>
<path d="M1 71.5056H8.1L32.4429 103.865V71.5056H39.5429V116H32.4429L8.1 83.6404V115.907L1 116V71.5056Z" fill="#4FAF88"/>
<path d="M103 71.5H111.5L126.008 100.516L141 71.5H149.5V115.5H143V82L128.5 111H124L109.5 82V115.5H103V71.5Z" fill="#4FAF88"/>
<path d="M158 115.5H165.5L179.508 79.7542L179 78.5H180L179.508 79.7542L194 115.5H201L183.775 71.5H176L158 115.5Z" fill="#4FAF88"/>
<path fill-rule="evenodd" clip-rule="evenodd" d="M210.5 71.5H227.5C237.205 71.5 251 75.9 251 93.5C251 111.1 235.833 115.5 229 115.5H210.5V71.5ZM217.5 78V93.5V109C231.5 109 243.5 109.5 244 93.5C243.5 77.5 231.5 78 217.5 78Z" fill="#4FAF88"/>
<path fill-rule="evenodd" clip-rule="evenodd" d="M170.5 55H178V62.5H170.5V55ZM177 61.5V56H171.5V61.5H177Z" fill="#4FAF88"/>
<path fill-rule="evenodd" clip-rule="evenodd" d="M180.5 55H188V62.5H180.5V55ZM187 56H181.5V61.5H187V56Z" fill="#4FAF88"/>
<path fill-rule="evenodd" clip-rule="evenodd" d="M180.5 45H188V52.5H180.5V45ZM187 46H181.5V51.5H187V46Z" fill="#4FAF88"/>
<path fill-rule="evenodd" clip-rule="evenodd" d="M170.5 45H178V52.5H170.5V45ZM177 46H171.5V51.5H177V46Z" fill="#4FAF88"/>
<path d="M126.5 101.5L126.008 100.516M125.5 101.5L126.008 100.516M126.008 100.516L111.5 71.5H103V115.5H109.5V82L124 111H128.5L143 82V115.5H149.5V71.5H141L126.008 100.516ZM179.508 79.7542L165.5 115.5H158L176 71.5H183.775L201 115.5H194L179.508 79.7542ZM179.508 79.7542L179 78.5H180L179.508 79.7542ZM1 71.5056H8.1L32.4429 103.865V71.5056H39.5429V116H32.4429L8.1 83.6404V115.907L1 116V71.5056ZM71.5 71.5C62.3628 71.5023 48 76 48 93.5C48 110.5 61.5 116 71.5 116C81.5 116 95 110.5 95 93.5C95 76 80.6372 71.5023 71.5 71.5ZM71.5 78.5C66.5 78.5 55.5 81 55.5 93.5C55.5 105.5 65.5 109.5 71.5 109.5C77.5 109.5 87.5 105.5 87.5 93.5C87.5 81 76.5 78.5 71.5 78.5ZM217.5 93.5V78C231.5 78 243.5 77.5 244 93.5C243.5 109.5 231.5 109 217.5 109V93.5ZM210.5 71.5H227.5C237.205 71.5 251 75.9 251 93.5C251 111.1 235.833 115.5 229 115.5H210.5V71.5ZM171.5 46H177V51.5H171.5V46ZM170.5 45H178V52.5H170.5V45ZM180.5 45H188V52.5H180.5V45ZM181.5 46H187V51.5H181.5V46ZM177 56V61.5H171.5V56H177ZM170.5 55H178V62.5H170.5V55ZM180.5 55H188V62.5H180.5V55ZM181.5 56H187V61.5H181.5V56ZM132 61.5L190.5 2.5L248.5 60.5H226.5L168 2L109.5 60.5L110 61L168 3L226 61H250L225.5 37L190.5 1.5L131.5 61L132 61.5Z" stroke="#4FAF88"/>
</svg>
