<svg width="248" height="248" viewBox="0 0 248 248" fill="none" xmlns="http://www.w3.org/2000/svg">
<path d="M53.2687 195.42V113.169C53.2687 104.518 60.2843 97.5021 68.9369 97.5021H131.603C140.255 97.5021 147.269 104.518 147.269 113.169V195.42H53.2687Z" fill="#4CAE86"/>
<path d="M37.8156 148.982H53.4821C57.8084 148.982 61.3171 152.489 61.3171 156.815V211.649H45.6489C36.9963 211.649 29.9824 204.635 29.9824 195.983V156.815C29.9824 152.489 33.4893 148.982 37.8156 148.982V148.982Z" fill="#A5D6C2"/>
<path d="M147.482 148.982H163.149C167.475 148.982 170.982 152.489 170.982 156.815V195.983C170.982 204.635 163.968 211.649 155.316 211.649H139.649V156.815C139.649 152.489 143.156 148.982 147.482 148.982V148.982Z" fill="#A5D6C2"/>
<path d="M75.2082 174.152H124.503C133.578 174.152 140.935 185.388 140.935 199.245V211.789H58.7766V199.245C58.7766 185.388 66.133 174.152 75.2082 174.152V174.152Z" fill="#A5D6C2"/>
<path d="M49.5664 211.649L41.7332 239.067H53.4821L69.1503 211.649H49.5664Z" fill="#C0BEBC"/>
<path d="M151.4 211.649L159.233 239.067H147.482L131.816 211.649H151.4Z" fill="#C0BEBC"/>
<path d="M203.552 227.316C205.714 227.316 207.468 225.563 207.468 223.399V39.1595C207.453 22.8045 194.808 9.23941 178.494 8.0794C162.181 6.92118 147.744 18.5607 145.417 34.7489L144.841 38.7596C144.533 40.9022 146.021 42.8869 148.162 43.1935C150.303 43.5001 152.289 42.0138 152.596 39.873L153.168 35.8569C154.901 23.7279 165.716 15.0018 177.938 15.8696C190.161 16.7391 199.633 26.9067 199.634 39.1595V223.399C199.634 225.563 201.388 227.316 203.552 227.316Z" fill="#4C4843"/>
<path d="M215.301 219.483H191.801C183.149 219.483 176.135 226.497 176.135 235.149H230.967C230.967 226.497 223.953 219.483 215.301 219.483Z" fill="#829289"/>
<path d="M149.881 39.4248C145.616 38.704 141.573 41.5781 140.852 45.8434L139.547 53.5673L154.995 56.1777L156.3 48.4539C157.021 44.1886 154.147 40.1455 149.881 39.4248Z" fill="#829289"/>
<path d="M124.567 74.8725L162.145 81.2247C163.644 81.4775 165.153 80.8411 166.017 79.5932C166.883 78.3435 166.946 76.7066 166.182 75.3924L154.996 56.2011L139.549 53.5889L122.672 68.0523C121.528 69.0437 121.058 70.6036 121.464 72.0612C121.869 73.5188 123.077 74.6125 124.567 74.8725Z" fill="#EDC29D"/>
<path d="M244.082 238.851H16.9175C14.7535 238.851 13 237.098 13 234.936C13 232.772 14.7535 231.018 16.9175 231.018H244.082C246.247 231.018 248 232.772 248 234.936C248 237.098 246.247 238.851 244.082 238.851V238.851Z" fill="#C0BEBC"/>
<path d="M55.4193 46.7922L64.6076 42.2597L66.8739 46.8539L57.6856 51.3864L55.4193 46.7922Z" fill="#EAB98F"/>
<path d="M29.0032 59.8203L38.1915 55.2878L40.4578 59.882L31.2694 64.4145L29.0032 59.8203Z" fill="#EAB98F"/>
<path d="M37.1517 35.8091L41.7459 33.5428L46.2784 42.7312L41.6842 44.9974L37.1517 35.8091Z" fill="#EAB98F"/>
</svg>
