<svg width="164" height="164" viewBox="0 0 164 164" fill="none" xmlns="http://www.w3.org/2000/svg">
<rect x="34.8878" y="105.898" width="94.2439" height="45.1024" rx="22.5512" fill="#EAB98F"/>
<path d="M123.978 76.278C122.213 76.278 120.495 75.3836 119.532 73.775C111.79 60.8404 97.5413 52.8048 82.3466 52.8048C67.1519 52.8048 52.9034 60.8401 45.1613 73.775C43.712 76.1965 40.5485 77.0001 38.0961 75.5689C35.6434 74.1381 34.8298 71.0152 36.2791 68.5938C40.9263 60.8299 47.5521 54.3244 55.4403 49.7814C63.5758 45.0959 72.8797 42.6195 82.3463 42.6195C91.8129 42.6195 101.117 45.0959 109.252 49.7814C117.14 54.3244 123.767 60.8296 128.414 68.5938C129.863 71.015 129.049 74.1381 126.596 75.5689C125.774 76.0493 124.87 76.278 123.978 76.278V76.278Z" fill="#4CAE86"/>
<path d="M17.1465 58.7754C16.1819 58.7754 15.2067 58.5043 14.3383 57.9367C11.9551 56.3791 11.283 53.18 12.8367 50.7908C28.2251 27.1273 54.2101 13 82.3461 13C110.482 13 136.467 27.1273 151.856 50.7905C153.41 53.1794 152.737 56.3788 150.354 57.9364C147.971 59.495 144.78 58.82 143.226 56.431C129.746 35.7029 106.987 23.3279 82.3461 23.3279C57.705 23.3279 34.946 35.7029 21.4659 56.4313C20.4787 57.9497 18.8291 58.7754 17.1465 58.7754V58.7754Z" fill="#4CAE86"/>
<path d="M99.7964 93.1073C98.1094 93.1073 96.4587 92.2836 95.4854 90.7766C92.605 86.3164 87.6932 83.6538 82.3462 83.6538C76.9993 83.6538 72.0872 86.3164 69.207 90.7766C67.6928 93.1217 64.5373 93.8123 62.1585 92.3187C59.7804 90.8252 59.0804 87.7133 60.5947 85.3682C65.3592 77.99 73.4909 73.5854 82.3462 73.5854C91.2015 73.5854 99.3332 77.99 104.098 85.3682C105.612 87.7133 104.912 90.8252 102.534 92.3187C101.684 92.8525 100.735 93.1073 99.7964 93.1073V93.1073Z" fill="#4CAE86"/>
<path d="M82.0097 113.976C86.0993 113.976 89.4146 110.66 89.4146 106.571C89.4146 102.481 86.0993 99.1658 82.0097 99.1658C77.9201 99.1658 74.6049 102.481 74.6049 106.571C74.6049 110.66 77.9201 113.976 82.0097 113.976Z" fill="#4CAE86"/>
<path d="M61.0854 133.352H54.4828V140.229H51.0439V123.4H61.9107V126.209H54.4828V130.555H61.0854V133.352Z" fill="white"/>
<path d="M73.3117 134.069H70.5721V140.229H67.1332V123.4H73.3346C75.3062 123.4 76.827 123.843 77.8969 124.729C78.9667 125.615 79.5017 126.868 79.5017 128.486C79.5017 129.634 79.2533 130.593 78.7566 131.364C78.2675 132.127 77.5224 132.735 76.5213 133.19L80.1321 140.067V140.229H76.4411L73.3117 134.069ZM70.5721 131.26H73.3461C74.2096 131.26 74.8783 131.04 75.3521 130.601C75.8259 130.154 76.0628 129.541 76.0628 128.763C76.0628 127.97 75.8374 127.345 75.3865 126.891C74.9432 126.436 74.2593 126.209 73.3346 126.209H70.5721V131.26Z" fill="white"/>
<path d="M95.3961 132.936H88.7935V137.444H96.5424V140.229H85.3546V123.4H96.5195V126.209H88.7935V130.22H95.3961V132.936Z" fill="white"/>
<path d="M111.829 132.936H105.227V137.444H112.976V140.229H101.788V123.4H112.953V126.209H105.227V130.22H111.829V132.936Z" fill="white"/>
</svg>
