<svg width="30" height="35" viewBox="0 0 30 35" fill="none" xmlns="http://www.w3.org/2000/svg">
<path d="M15.2461 1V33.8991" stroke="#00B183" stroke-linecap="round" stroke-linejoin="round"/>
<path d="M19.4852 4.5249C18.206 5.29593 16.7401 5.70226 15.2465 5.69987C13.7529 5.70226 12.2871 5.29593 11.0078 4.5249" stroke="#00B183" stroke-linecap="round" stroke-linejoin="round"/>
<path d="M11.0078 30.3742C12.288 29.6054 13.7532 29.1992 15.2465 29.1992C16.7398 29.1992 18.205 29.6054 19.4852 30.3742" stroke="#00B183" stroke-linecap="round" stroke-linejoin="round"/>
<path d="M29.4915 9.22485L1 25.6744" stroke="#00B183" stroke-linecap="round" stroke-linejoin="round"/>
<path d="M28.5586 14.659C27.2524 13.9346 26.1679 12.8685 25.4214 11.5748C24.6748 10.2812 24.2943 8.8088 24.3206 7.31543" stroke="#00B183" stroke-linecap="round" stroke-linejoin="round"/>
<path d="M1.93359 20.2401C3.23978 20.9645 4.32425 22.0306 5.07081 23.3243C5.81736 24.6179 6.19787 26.0903 6.17155 27.5837" stroke="#00B183" stroke-linecap="round" stroke-linejoin="round"/>
<path d="M1 9.22485L29.4915 25.6744" stroke="#00B183" stroke-linecap="round" stroke-linejoin="round"/>
<path d="M1.93359 14.659C3.23978 13.9346 4.32425 12.8685 5.07081 11.5748C5.81736 10.2812 6.19787 8.8088 6.17155 7.31543" stroke="#00B183" stroke-linecap="round" stroke-linejoin="round"/>
<path d="M28.5586 20.2401C27.2524 20.9645 26.1679 22.0306 25.4214 23.3243C24.6748 24.6179 24.2943 26.0903 24.3206 27.5837" stroke="#00B183" stroke-linecap="round" stroke-linejoin="round"/>
</svg>
