<svg width="28" height="27" viewBox="0 0 28 27" fill="none" xmlns="http://www.w3.org/2000/svg">
<path d="M8.03132 15.1623C6.15329 15.1623 4.35218 14.4162 3.02421 13.0882C1.69624 11.7603 0.950195 9.95916 0.950195 8.08113C0.950195 6.20309 1.69624 4.40198 3.02421 3.07401C4.35218 1.74605 6.15329 1 8.03132 1H8.12775L23.4691 4.39263C23.568 4.4149 23.6561 4.47074 23.7184 4.55066C23.7808 4.63058 23.8135 4.72963 23.811 4.83095V11.3313C23.8135 11.4326 23.7808 11.5317 23.7184 11.6116C23.6561 11.6915 23.568 11.7474 23.4691 11.7696L8.12775 15.1623H8.03132ZM7.96119 1.87665C6.34421 1.91963 4.80789 2.59217 3.67941 3.75105C2.55093 4.90993 1.91945 6.46357 1.91945 8.08113C1.91945 9.69868 2.55093 11.2523 3.67941 12.4112C4.80789 13.5701 6.34421 14.2426 7.96119 14.2856L22.9519 10.9806V5.18161L7.96119 1.87665Z" fill="#00B183" stroke="#00B183" stroke-width="0.2"/>
<path d="M12.2263 26.4228C11.6461 26.4213 11.0804 26.2419 10.6055 25.9087C10.1305 25.5756 9.7691 25.1049 9.57004 24.5599L6.12043 15.0702C6.09824 15.0083 6.09026 14.9422 6.0971 14.8768C6.10394 14.8113 6.12542 14.7483 6.15994 14.6923C6.19446 14.6363 6.24114 14.5888 6.29652 14.5533C6.3519 14.5178 6.41456 14.4952 6.47985 14.4873L11.4461 13.8911C11.5448 13.8795 11.6446 13.9018 11.7291 13.9544C11.8135 14.0069 11.8776 14.0866 11.9107 14.1804L14.8957 22.6532C15.1415 23.3562 15.1009 24.1277 14.7827 24.801C14.4645 25.4744 13.8942 25.9955 13.195 26.2519C12.8845 26.3649 12.5567 26.4228 12.2263 26.4228ZM7.13296 15.2894L10.3941 24.2619C10.4817 24.5029 10.6159 24.7243 10.7892 24.9134C10.9624 25.1025 11.1712 25.2556 11.4037 25.3639C11.6362 25.4722 11.8877 25.5336 12.1439 25.5446C12.4002 25.5555 12.656 25.5159 12.8969 25.4278C13.3797 25.2506 13.7735 24.8907 13.9933 24.4258C14.213 23.9608 14.2412 23.4281 14.0716 22.9425L11.2006 14.8028L7.13296 15.2894ZM27.0636 13.1854C27.008 13.1856 26.953 13.1752 26.9014 13.1548L23.2501 11.717C23.1686 11.6846 23.0987 11.6283 23.0494 11.5557C23.0002 11.483 22.9739 11.3972 22.974 11.3094V4.85289C22.9739 4.76511 23.0002 4.67932 23.0494 4.60663C23.0987 4.53395 23.1686 4.47773 23.2501 4.44525L26.9014 3.00755C26.9679 2.98105 27.0399 2.97126 27.1111 2.97903C27.1823 2.98679 27.2505 3.01189 27.3097 3.05211C27.369 3.09233 27.4175 3.14645 27.451 3.20975C27.4845 3.27304 27.5019 3.34358 27.5019 3.41519V12.7471C27.5019 12.8634 27.4557 12.9748 27.3735 13.0571C27.2913 13.1393 27.1798 13.1854 27.0636 13.1854ZM23.8506 10.9938L26.6252 12.0896V4.06829L23.8506 5.1641V10.9938Z" fill="#00B183" stroke="#00B183" stroke-width="0.2"/>
<path d="M12.8925 18.064C12.7964 18.0687 12.7014 18.0416 12.6221 17.987C12.5429 17.9323 12.4839 17.8531 12.4542 17.7616L11.3058 14.2199C11.2859 14.1591 11.2797 14.0946 11.2874 14.0311C11.2951 13.9676 11.3166 13.9066 11.3505 13.8523C11.3843 13.7979 11.4296 13.7517 11.4832 13.7168C11.5369 13.6819 11.5975 13.6591 11.6608 13.6501L13.3834 13.3959C13.482 13.3812 13.5826 13.4006 13.6686 13.4508C13.7547 13.501 13.821 13.579 13.8568 13.672L15.0885 16.8805C15.1099 16.936 15.1198 16.9952 15.1176 17.0545C15.1155 17.1139 15.1012 17.1722 15.0758 17.2259C15.0504 17.2796 15.0143 17.3276 14.9698 17.3669C14.9252 17.4063 14.8732 17.4361 14.8167 17.4547L13.0152 18.0421C12.9756 18.0552 12.9342 18.0626 12.8925 18.064ZM12.3183 14.4435L13.173 17.0734L14.1198 16.7666L13.1818 14.3163L12.3183 14.4435Z" fill="#00B183" stroke="#00B183" stroke-width="0.2"/>
<path d="M8.72835 12.3965C7.8914 12.3974 7.073 12.15 6.37674 11.6855C5.68047 11.2211 5.13765 10.5605 4.81696 9.78743C4.49627 9.01435 4.41213 8.16351 4.5752 7.3426C4.73827 6.52168 5.14121 5.7676 5.73303 5.17578C6.32485 4.58396 7.07893 4.18102 7.89985 4.01795C8.72076 3.85488 9.5716 3.93902 10.3447 4.25971C11.1178 4.5804 11.7783 5.12322 12.2428 5.81949C12.7072 6.51575 12.9547 7.33415 12.9538 8.1711C12.9515 9.29105 12.5056 10.3645 11.7136 11.1564C10.9217 11.9483 9.8483 12.3942 8.72835 12.3965ZM8.72835 4.81792C8.06497 4.81705 7.41624 5.01298 6.86423 5.3809C6.31223 5.74883 5.88176 6.27222 5.62729 6.88485C5.37283 7.49749 5.3058 8.17184 5.43469 8.82258C5.56357 9.47333 5.88259 10.0712 6.35136 10.5406C6.82014 11.01 7.41761 11.3298 8.06818 11.4595C8.71875 11.5893 9.39319 11.5231 10.0062 11.2695C10.6191 11.0158 11.1431 10.586 11.5117 10.0345C11.8804 9.48296 12.0771 8.83448 12.0771 8.1711C12.0795 7.72965 11.9946 7.29209 11.8274 6.88352C11.6602 6.47496 11.4139 6.10343 11.1028 5.79026C10.7917 5.47708 10.4217 5.22843 10.0143 5.05856C9.60681 4.88869 9.16981 4.80096 8.72835 4.80039V4.81792Z" fill="#00B183" stroke="#00B183" stroke-width="0.2"/>
</svg>
