<svg width="14" height="32" viewBox="0 0 14 32" fill="none" xmlns="http://www.w3.org/2000/svg">
<mask id="path-1-inside-1" fill="white">
<path fill-rule="evenodd" clip-rule="evenodd" d="M6.81222 0C4.82065 0 3.20616 1.61449 3.20616 3.60607V18.6609C1.28077 19.8644 0 22.0031 0 24.4411C0 28.2029 3.04959 31.2525 6.81145 31.2525C10.5733 31.2525 13.6229 28.2029 13.6229 24.4411C13.6229 22.0038 12.3428 19.8655 10.4183 18.6619V3.60606C10.4183 1.61449 8.8038 0 6.81222 0Z"/>
</mask>
<path d="M3.20616 18.6609L3.73619 19.5089L4.20616 19.2151V18.6609H3.20616ZM10.4183 18.6619H9.41829V19.2159L9.88803 19.5097L10.4183 18.6619ZM4.20616 3.60607C4.20616 2.16678 5.37294 1 6.81222 1V-1C4.26836 -1 2.20616 1.06221 2.20616 3.60607H4.20616ZM4.20616 18.6609V3.60607H2.20616V18.6609H4.20616ZM1 24.4411C1 22.3622 2.09088 20.5373 3.73619 19.5089L2.67613 17.8129C0.470666 19.1915 -1 21.6441 -1 24.4411H1ZM6.81145 30.2525C3.60187 30.2525 1 27.6506 1 24.4411H-1C-1 28.7552 2.49731 32.2525 6.81145 32.2525V30.2525ZM12.6229 24.4411C12.6229 27.6506 10.021 30.2525 6.81145 30.2525V32.2525C11.1256 32.2525 14.6229 28.7552 14.6229 24.4411H12.6229ZM9.88803 19.5097C11.5326 20.5383 12.6229 22.3627 12.6229 24.4411H14.6229C14.6229 21.6449 13.153 19.1928 10.9485 17.814L9.88803 19.5097ZM9.41829 3.60606V18.6619H11.4183V3.60606H9.41829ZM6.81222 1C8.25151 1 9.41829 2.16677 9.41829 3.60606H11.4183C11.4183 1.06221 9.35608 -1 6.81222 -1V1Z" fill="#00B183" mask="url(#path-1-inside-1)"/>
<circle cx="6.62901" cy="24.1496" r="3.28819" fill="#FEFFFF" stroke="#00B183"/>
<path d="M6.62891 4.73523V20.835" stroke="#00B183" stroke-linecap="round" stroke-linejoin="round"/>
</svg>
