<svg width="30" height="29" viewBox="0 0 30 29" fill="none" xmlns="http://www.w3.org/2000/svg">
<path d="M22.7639 20.2885C21.9705 20.3124 21.1842 20.0977 20.4721 19.6625C19.8552 19.2821 19.1729 19.0945 18.4844 19.1163C17.7963 19.0945 17.1144 19.2821 16.4979 19.6625C15.7863 20.0976 15.0005 20.3124 14.2076 20.2885C13.4144 20.3124 12.6284 20.0977 11.9165 19.6625C11.2999 19.282 10.6178 19.0945 9.92961 19.1163C9.24198 19.0957 8.5607 19.284 7.945 19.6649C7.23265 20.0995 6.44617 20.3135 5.65277 20.2885C4.86025 20.3132 4.0747 20.0992 3.36319 19.6649C2.74719 19.2836 2.06547 19.0953 1.37745 19.1163C1.27734 19.1163 1.18134 19.0669 1.11055 18.979C1.03977 18.891 1 18.7718 1 18.6474C1 18.5231 1.03977 18.4038 1.11055 18.3159C1.18134 18.228 1.27734 18.1786 1.37745 18.1786C2.17053 18.1553 2.95636 18.3708 3.66779 18.8069C4.28387 19.1864 4.96532 19.3731 5.65277 19.3507C6.34076 19.3724 7.02258 19.1849 7.63889 18.8045C8.35064 18.3694 9.13657 18.1546 9.92961 18.1786C10.7228 18.1546 11.5088 18.3694 12.2207 18.8045C12.8373 19.185 13.5194 19.3726 14.2076 19.3507C14.8956 19.3724 15.5774 19.1849 16.1937 18.8045C16.9054 18.3694 17.6914 18.1546 18.4844 18.1786C19.2786 18.155 20.0656 18.3705 20.7782 18.8069C21.4007 19.1667 22.0791 19.3531 22.7658 19.3531C23.4525 19.3531 24.1308 19.1667 24.7534 18.8069C25.465 18.3712 26.2507 18.1557 27.0438 18.1786C27.1439 18.1786 27.2399 18.228 27.3107 18.3159C27.3814 18.4038 27.4212 18.5231 27.4212 18.6474C27.4212 18.7718 27.3814 18.891 27.3107 18.979C27.2399 19.0669 27.1439 19.1163 27.0438 19.1163C26.3553 19.0945 25.673 19.2821 25.0561 19.6625C24.3439 20.0977 23.5574 20.3125 22.7639 20.2885Z" fill="#00B183" stroke="#00B183" stroke-width="0.2"/>
<path d="M22.7639 24.5159C21.9705 24.5398 21.1842 24.3251 20.4721 23.89C19.8552 23.5095 19.1729 23.322 18.4844 23.3437C17.7963 23.322 17.1144 23.5095 16.4979 23.89C15.7863 24.3251 15.0005 24.5398 14.2076 24.5159C13.4144 24.5399 12.6284 24.3251 11.9165 23.89C11.2999 23.5094 10.6178 23.3219 9.92961 23.3437C9.24198 23.3231 8.5607 23.5114 7.945 23.8923C7.23265 24.327 6.44617 24.5409 5.65277 24.5159C4.86025 24.5406 4.0747 24.3266 3.36319 23.8923C2.74719 23.511 2.06547 23.3227 1.37745 23.3437C1.27734 23.3437 1.18134 23.2943 1.11055 23.2064C1.03977 23.1185 1 22.9992 1 22.8749C1 22.7505 1.03977 22.6312 1.11055 22.5433C1.18134 22.4554 1.27734 22.406 1.37745 22.406C2.17053 22.3827 2.95636 22.5982 3.66779 23.0343C4.28387 23.4138 4.96532 23.6005 5.65277 23.5782C6.34076 23.5999 7.02258 23.4123 7.63889 23.0319C8.35064 22.5968 9.13657 22.382 9.92961 22.406C10.7228 22.382 11.5088 22.5968 12.2207 23.0319C12.8373 23.4125 13.5194 23.6 14.2076 23.5782C14.8956 23.5999 15.5774 23.4123 16.1937 23.0319C16.9054 22.5968 17.6914 22.382 18.4844 22.406C19.2786 22.3824 20.0656 22.598 20.7782 23.0343C21.4007 23.3941 22.0791 23.5805 22.7658 23.5805C23.4525 23.5805 24.1308 23.3941 24.7534 23.0343C25.465 22.5986 26.2507 22.3831 27.0438 22.406C27.1439 22.406 27.2399 22.4554 27.3107 22.5433C27.3814 22.6312 27.4212 22.7505 27.4212 22.8749C27.4212 22.9992 27.3814 23.1185 27.3107 23.2064C27.2399 23.2943 27.1439 23.3437 27.0438 23.3437C26.3553 23.322 25.673 23.5095 25.0561 23.89C24.3439 24.3251 23.5574 24.5399 22.7639 24.5159Z" fill="#00B183" stroke="#00B183" stroke-width="0.2"/>
<path d="M22.7639 28.7436C21.9705 28.7675 21.1842 28.5528 20.4721 28.1176C19.8552 27.7371 19.1729 27.5496 18.4844 27.5714C17.7963 27.5496 17.1144 27.7371 16.4979 28.1176C15.7863 28.5527 15.0005 28.7675 14.2076 28.7436C13.4144 28.7675 12.6284 28.5528 11.9165 28.1176C11.2999 27.7371 10.6178 27.5496 9.92961 27.5714C9.24198 27.5507 8.5607 27.7391 7.945 28.12C7.23265 28.5546 6.44617 28.7686 5.65277 28.7436C4.86025 28.7682 4.0747 28.5543 3.36319 28.12C2.74719 27.7387 2.06547 27.5503 1.37745 27.5714C1.27734 27.5714 1.18134 27.522 1.11055 27.4341C1.03977 27.3461 1 27.2269 1 27.1025C1 26.9782 1.03977 26.8589 1.11055 26.771C1.18134 26.683 1.27734 26.6336 1.37745 26.6336C2.17053 26.6103 2.95636 26.8259 3.66779 27.2619C4.28387 27.6415 4.96532 27.8282 5.65277 27.8058C6.34076 27.8275 7.02258 27.64 7.63889 27.2596C8.35064 26.8244 9.13657 26.6097 9.92961 26.6336C10.7228 26.6097 11.5088 26.8244 12.2207 27.2596C12.8373 27.6401 13.5194 27.8276 14.2076 27.8058C14.8956 27.8275 15.5774 27.64 16.1937 27.2596C16.9054 26.8244 17.6914 26.6097 18.4844 26.6336C19.2786 26.6101 20.0656 26.8256 20.7782 27.2619C21.4007 27.6217 22.0791 27.8082 22.7658 27.8082C23.4525 27.8082 24.1308 27.6217 24.7534 27.2619C25.465 26.8263 26.2507 26.6107 27.0438 26.6336C27.1439 26.6336 27.2399 26.683 27.3107 26.771C27.3814 26.8589 27.4212 26.9782 27.4212 27.1025C27.4212 27.2269 27.3814 27.3461 27.3107 27.4341C27.2399 27.522 27.1439 27.5714 27.0438 27.5714C26.3553 27.5496 25.673 27.7371 25.0561 28.1176C24.3439 28.5528 23.5574 28.7676 22.7639 28.7436Z" fill="#00B183" stroke="#00B183" stroke-width="0.2"/>
<path d="M12.0552 19.2337C11.9258 19.2337 11.8017 19.1871 11.7102 19.1041C11.6188 19.0212 11.5674 18.9086 11.5674 18.7913V3.08606C11.5674 2.3234 11.9014 1.59198 12.496 1.0527C13.0906 0.513414 13.897 0.210449 14.7379 0.210449C15.5788 0.210449 16.3852 0.513414 16.9798 1.0527C17.5744 1.59198 17.9085 2.3234 17.9085 3.08606C17.9085 3.20339 17.8571 3.31592 17.7656 3.39888C17.6741 3.48185 17.5501 3.52846 17.4207 3.52846C17.2913 3.52846 17.1673 3.48185 17.0758 3.39888C16.9843 3.31592 16.9329 3.20339 16.9329 3.08606C16.9329 2.55806 16.7017 2.0517 16.29 1.67835C15.8784 1.305 15.3201 1.09525 14.7379 1.09525C14.1558 1.09525 13.5975 1.305 13.1858 1.67835C12.7742 2.0517 12.5429 2.55806 12.5429 3.08606V18.7913C12.5429 18.9086 12.4915 19.0212 12.4001 19.1041C12.3086 19.1871 12.1845 19.2337 12.0552 19.2337Z" fill="#00B183" stroke="#00B183" stroke-width="0.2"/>
<path d="M23.6821 19.2337C23.5527 19.2337 23.4287 19.1871 23.3372 19.1041C23.2457 19.0212 23.1943 18.9086 23.1943 18.7913V3.08606C23.1943 2.3234 23.5284 1.59198 24.123 1.0527C24.7176 0.513414 25.524 0.210449 26.3649 0.210449C27.2058 0.210449 28.0122 0.513414 28.6068 1.0527C29.2014 1.59198 29.5354 2.3234 29.5354 3.08606C29.5354 3.20339 29.484 3.31592 29.3926 3.39888C29.3011 3.48185 29.177 3.52846 29.0476 3.52846C28.9183 3.52846 28.7942 3.48185 28.7027 3.39888C28.6113 3.31592 28.5599 3.20339 28.5599 3.08606C28.5599 2.55806 28.3286 2.0517 27.917 1.67835C27.5053 1.305 26.947 1.09525 26.3649 1.09525C25.7827 1.09525 25.2244 1.305 24.8128 1.67835C24.4011 2.0517 24.1699 2.55806 24.1699 3.08606V18.7913C24.1699 18.9086 24.1185 19.0212 24.027 19.1041C23.9355 19.1871 23.8115 19.2337 23.6821 19.2337Z" fill="#00B183" stroke="#00B183" stroke-width="0.2"/>
<path d="M22.9785 10.6932H12.053C11.9242 10.6932 11.8007 10.642 11.7096 10.551C11.6185 10.4599 11.5674 10.3364 11.5674 10.2076C11.5674 10.0788 11.6185 9.95533 11.7096 9.86427C11.8007 9.77321 11.9242 9.72205 12.053 9.72205H22.9785C23.1073 9.72205 23.2308 9.77321 23.3218 9.86427C23.4129 9.95533 23.4641 10.0788 23.4641 10.2076C23.4641 10.3364 23.4129 10.4599 23.3218 10.551C23.2308 10.642 23.1073 10.6932 22.9785 10.6932Z" fill="#00B183" stroke="#00B183" stroke-width="0.2"/>
<path d="M22.9785 14.9206H12.053C11.9242 14.9206 11.8007 14.8695 11.7096 14.7784C11.6185 14.6873 11.5674 14.5638 11.5674 14.435C11.5674 14.3063 11.6185 14.1827 11.7096 14.0917C11.8007 14.0006 11.9242 13.9495 12.053 13.9495H22.9785C23.1073 13.9495 23.2308 14.0006 23.3218 14.0917C23.4129 14.1827 23.4641 14.3063 23.4641 14.435C23.4641 14.5638 23.4129 14.6873 23.3218 14.7784C23.2308 14.8695 23.1073 14.9206 22.9785 14.9206Z" fill="#00B183" stroke="#00B183" stroke-width="0.2"/>
</svg>
