<svg width="32" height="32" viewBox="0 0 32 32" fill="none" xmlns="http://www.w3.org/2000/svg">
<path d="M0.028614 11.1808C0.19528 10.0375 1.26992 9.12978 2.33692 8.88014C3.32572 8.64885 4.35219 8.52296 5.35196 8.34604C8.33838 7.81671 11.3255 7.28761 14.3119 6.75828C14.5468 6.71679 14.7809 6.68889 15.0153 6.6722V4.80762C13.9643 4.5358 13.1853 3.57871 13.1853 2.44279C13.1853 1.09562 14.2798 0 15.6252 0C16.9707 0 18.0652 1.09562 18.0652 2.44279C18.0652 2.77971 17.7919 3.0532 17.455 3.0532C17.1183 3.0532 16.8451 2.77971 16.8451 2.44279C16.8451 1.76897 16.2979 1.2208 15.6252 1.2208C14.9524 1.2208 14.4052 1.76897 14.4052 2.44279C14.4052 3.11614 14.9524 3.66431 15.6252 3.66431C15.9619 3.66431 16.2352 3.9378 16.2352 4.27471V6.67483C17.5294 6.76376 18.8196 7.09162 20.1 7.31861C22.9455 7.8229 25.7965 8.30336 28.6384 8.83126C30.2421 9.12978 31.9098 10.5318 30.9906 12.3313C30.1287 14.0185 28.5299 13.8628 26.9098 13.8628V29.4213C26.9098 30.4309 26.0888 31.2525 25.0798 31.2525H6.17051C5.16168 31.2525 4.34075 30.4309 4.34075 29.4213V13.8628H2.4497C0.98093 13.8628 -0.198854 12.7433 0.028614 11.1808ZM5.56059 23.9246H9.83052C10.1672 23.9246 10.4404 24.1981 10.4404 24.535C10.4404 24.8719 10.1672 25.1454 9.83052 25.1454H5.56059V29.4213C5.56059 29.7577 5.83455 30.0317 6.17051 30.0317H25.0798C25.4159 30.0317 25.6899 29.7577 25.6899 29.4213V25.1454H14.7101C14.3735 25.1454 14.1002 24.8719 14.1002 24.535C14.1002 24.1981 14.3735 23.9246 14.7101 23.9246H25.6899V12.2648C25.6899 11.9286 25.4159 11.6544 25.0798 11.6544H24.4431C24.0788 11.6348 23.7073 11.6544 23.3425 11.6544H7.54105C7.29045 11.6544 7.03294 11.6379 6.78305 11.6544H6.17051C5.83455 11.6544 5.56059 11.9286 5.56059 12.2648V23.9246ZM1.63663 12.4851C2.45519 12.7793 3.48547 12.661 4.34051 12.642V12.2648C4.34051 11.2552 5.16168 10.4336 6.17051 10.4336H25.0798C26.0888 10.4336 26.9098 11.2552 26.9098 12.2648V12.642C27.5032 12.6548 28.1389 12.7025 28.7281 12.642C29.7064 12.5413 30.3897 11.4317 29.6926 10.5978C29.1654 9.9667 27.8339 9.92879 27.0702 9.79335C24.2385 9.29144 21.4071 8.78977 18.5757 8.2881C17.0752 8.022 15.785 7.73683 14.2747 8.00483C11.5451 8.48815 8.81478 8.97217 6.08515 9.45573C4.75968 9.69083 -0.190987 9.94643 1.63663 12.4851Z" fill="#00B183"/>
</svg>
