<?xml version="1.0"?>
<svg xmlns="http://www.w3.org/2000/svg" xmlns:xlink="http://www.w3.org/1999/xlink" xmlns:svgjs="http://svgjs.com/svgjs" version="1.1" width="512" height="512" x="0" y="0" viewBox="0 0 502.181 502.181" style="enable-background:new 0 0 512 512" xml:space="preserve" class=""><g>
<g xmlns="http://www.w3.org/2000/svg">
	<g>
		<path d="M499.846,162.304C362.8,24.895,140.311,24.601,2.903,161.647c-0.219,0.219-0.438,0.438-0.657,0.657    c-3.069,3.178-2.981,8.243,0.197,11.312c3.1,2.994,8.015,2.994,11.115,0c130.816-131.148,343.179-131.417,474.327-0.601    c0.201,0.2,0.401,0.401,0.601,0.601c3.124,3.137,8.199,3.148,11.336,0.024C502.959,170.516,502.969,165.441,499.846,162.304z" fill="#00b183" data-original="#000000" style="" class=""/>
	</g>
</g>
<g xmlns="http://www.w3.org/2000/svg">
	<g>
		<path d="M454.622,207.528c-53.86-54.201-127.165-84.601-203.576-84.424c-76.411-0.177-149.716,30.223-203.576,84.424    c-3.069,3.178-2.981,8.243,0.197,11.312c3.1,2.994,8.015,2.994,11.115,0c105.998-106.184,278.006-106.335,384.191-0.337    c0.113,0.112,0.225,0.225,0.337,0.337c3.178,3.07,8.242,2.982,11.312-0.196C457.616,215.543,457.616,210.628,454.622,207.528z" fill="#00b183" data-original="#000000" style="" class=""/>
	</g>
</g>
<g xmlns="http://www.w3.org/2000/svg">
	<g>
		<path d="M409.35,252.808c-41.858-42.191-98.873-65.855-158.304-65.704c-59.431-0.151-116.446,23.513-158.304,65.704    c-3.122,3.128-3.116,8.195,0.012,11.316c3.128,3.121,8.195,3.116,11.316-0.012c80.929-81.173,212.339-81.37,293.511-0.441    c0.147,0.147,0.294,0.294,0.441,0.441c3.122,3.128,8.188,3.133,11.316,0.012C412.466,261.002,412.471,255.936,409.35,252.808z" fill="#00b183" data-original="#000000" style="" class=""/>
	</g>
</g>
<g xmlns="http://www.w3.org/2000/svg">
	<g>
		<path d="M364.142,298.008c-29.921-30.113-70.646-47.003-113.096-46.904c-42.45-0.099-83.175,16.791-113.096,46.904    c-3.07,3.178-2.982,8.242,0.196,11.312c3.1,2.994,8.015,2.994,11.116,0c56.107-56.214,147.161-56.3,203.375-0.193    c0.064,0.064,0.129,0.128,0.193,0.193c3.178,3.07,8.242,2.982,11.312-0.196C367.136,306.024,367.136,301.108,364.142,298.008z" fill="#00b183" data-original="#000000" style="" class=""/>
	</g>
</g>
<g xmlns="http://www.w3.org/2000/svg">
	<g>
		<path d="M319.12,343.385c-0.064-0.066-0.129-0.13-0.195-0.194c-17.987-18.023-42.417-28.132-67.88-28.088    c-25.463-0.044-49.893,10.065-67.88,28.088c-3.186,3.061-3.287,8.125-0.226,11.311c3.061,3.186,8.125,3.287,11.311,0.226    c0.066-0.063,0.131-0.128,0.195-0.194c31.266-31.244,81.934-31.244,113.2,0c3.079,3.169,8.144,3.241,11.313,0.162    S322.199,346.554,319.12,343.385z" fill="#00b183" data-original="#000000" style="" class=""/>
	</g>
</g>
<g xmlns="http://www.w3.org/2000/svg">
	<g>
		<path d="M273.685,388.511c-0.008-0.008-0.015-0.015-0.023-0.023c-12.648-12.103-32.584-12.103-45.232,0    c-12.503,12.49-12.513,32.752-0.023,45.255c12.49,12.503,32.752,12.513,45.255,0.023    C286.165,421.275,286.175,401.014,273.685,388.511z M251.046,427.104c-8.837,0-16-7.163-16-16s7.163-16,16-16    c8.837,0,16,7.163,16,16S259.882,427.104,251.046,427.104z" fill="#00b183" data-original="#000000" style="" class=""/>
	</g>
</g>
<g xmlns="http://www.w3.org/2000/svg">
</g>
<g xmlns="http://www.w3.org/2000/svg">
</g>
<g xmlns="http://www.w3.org/2000/svg">
</g>
<g xmlns="http://www.w3.org/2000/svg">
</g>
<g xmlns="http://www.w3.org/2000/svg">
</g>
<g xmlns="http://www.w3.org/2000/svg">
</g>
<g xmlns="http://www.w3.org/2000/svg">
</g>
<g xmlns="http://www.w3.org/2000/svg">
</g>
<g xmlns="http://www.w3.org/2000/svg">
</g>
<g xmlns="http://www.w3.org/2000/svg">
</g>
<g xmlns="http://www.w3.org/2000/svg">
</g>
<g xmlns="http://www.w3.org/2000/svg">
</g>
<g xmlns="http://www.w3.org/2000/svg">
</g>
<g xmlns="http://www.w3.org/2000/svg">
</g>
<g xmlns="http://www.w3.org/2000/svg">
</g>
</g></svg>
