<svg width="32" height="32" viewBox="0 0 32 32" fill="none" xmlns="http://www.w3.org/2000/svg">
<path d="M0.0490505 27.5018C0.121828 27.6777 0.32814 27.9081 0.497744 28.0052C0.588558 28.06 2.12891 28.084 6.18612 28.1084L11.7593 28.1388L11.8865 28.4479C12.4263 29.7092 13.6756 30.7524 14.9068 30.9587C16.1013 31.1587 17.217 30.7705 18.1815 29.8063C18.5938 29.4 18.7577 29.1817 18.9517 28.7814C19.0912 28.5023 19.2064 28.2416 19.2064 28.1932C19.2064 28.1264 20.1161 28.1084 24.81 28.096C30.3648 28.078 30.4196 28.078 30.5831 27.9505C30.9046 27.7141 31.0015 27.5198 31.0015 27.1379C31.0015 26.756 30.9043 26.5617 30.5831 26.3253C30.4196 26.1981 30.3648 26.1981 24.81 26.1798C20.1161 26.1677 19.2064 26.1494 19.2064 26.0826C19.2064 26.0342 19.0912 25.7735 18.9517 25.4944C18.7517 25.0941 18.5878 24.8758 18.1815 24.4695C17.6417 23.9297 17.1626 23.6325 16.4775 23.4022C16.0652 23.2626 15.0707 23.2446 14.6277 23.3718C13.4756 23.6933 12.3779 24.6758 11.8865 25.8279L11.7593 26.137L6.18011 26.1674C0.66165 26.1978 0.594885 26.1978 0.430977 26.325C0.339846 26.3918 0.206629 26.519 0.145875 26.6041C0.00664828 26.7924 -0.0480921 27.2774 0.0490505 27.5018ZM13.7424 26.2586C13.9183 25.8643 14.2335 25.5431 14.6217 25.3672C15.0644 25.1672 15.9497 25.1672 16.3924 25.3672C16.7807 25.5431 17.0958 25.8646 17.2718 26.2525C17.4597 26.6832 17.4597 27.5866 17.2718 28.0233C17.1079 28.4055 16.7867 28.727 16.3864 28.9089C15.9497 29.1089 15.0644 29.1089 14.6277 28.9089C13.8999 28.5754 13.5484 27.9508 13.5848 27.0471C13.6028 26.7076 13.6452 26.4709 13.7424 26.2586Z" fill="white"/>
<path d="M0.0435255 16.1434C0.377038 17.7141 1.83228 19.1089 3.36062 19.3273C4.53107 19.4972 5.60439 19.1029 6.53847 18.1688C6.94476 17.7625 7.11468 17.5382 7.30865 17.1379C7.4482 16.8588 7.56338 16.5921 7.56338 16.5497C7.56338 16.4769 9.33409 16.4649 18.9885 16.4525L30.42 16.4345L30.5836 16.3073C30.9051 16.0709 31.002 15.8766 31.002 15.4947C31.002 15.1128 30.9048 14.9185 30.5836 14.6821L30.42 14.5546L18.9885 14.5366C9.33409 14.5246 7.56338 14.5122 7.56338 14.4394C7.56338 14.397 7.4482 14.13 7.30865 13.8512C6.98115 13.1902 6.223 12.414 5.59236 12.0865C4.88294 11.7226 4.57347 11.6438 3.86405 11.6438C2.80877 11.6438 2.02656 11.9894 1.19563 12.8263C0.661822 13.3601 0.389063 13.7844 0.158706 14.4454C0.019162 14.8457 -0.0415929 15.7431 0.0435255 16.1434ZM2.09934 14.6151C2.27528 14.2208 2.59044 13.8993 2.97869 13.7237C3.42137 13.5297 4.30673 13.5297 4.74941 13.7237C5.13133 13.8996 5.45282 14.2211 5.63476 14.6151C5.83474 15.0577 5.83474 15.9371 5.63476 16.3798C5.45883 16.7617 5.13734 17.0832 4.74339 17.2651C4.30673 17.4651 3.42137 17.4651 2.9847 17.2651C2.25692 16.9316 1.90537 16.307 1.94176 15.4033C1.9598 15.0637 2.0022 14.8274 2.09934 14.6151Z" fill="white"/>
<path d="M0.0675046 4.24516C0.170659 4.46951 0.382983 4.6698 0.607328 4.7546C0.728519 4.80302 4.23388 4.82137 12.1176 4.82137C21.7297 4.82137 23.452 4.83339 23.452 4.90617C23.452 4.94857 23.5672 5.21532 23.7067 5.49441C24.0342 6.16143 24.7924 6.93161 25.423 7.25911C26.1324 7.623 26.4419 7.70179 27.1513 7.70179C28.2066 7.70179 28.9888 7.35625 29.8197 6.51931C30.6567 5.68837 31.0022 4.90617 31.0022 3.85089C31.0022 2.79561 30.6563 2.01341 29.8197 1.18248C28.9888 0.345534 28.2066 -2.87154e-06 27.1513 -2.82541e-06C26.4416 -2.79438e-06 26.1324 0.0787884 25.423 0.442678C24.7924 0.770178 24.0342 1.54035 23.7067 2.20738C23.5672 2.48647 23.452 2.75321 23.452 2.79562C23.452 2.86839 21.6813 2.88042 12.0268 2.89276L0.595617 2.9108L0.432027 3.038C0.340897 3.10476 0.207683 3.23197 0.146929 3.31708C-0.00527136 3.52339 -0.0476742 4.00246 0.0675046 4.24516ZM25.3863 2.97155C25.5622 2.57728 25.8774 2.25611 26.2656 2.08018C26.5203 1.965 26.6779 1.94063 27.151 1.94063C27.624 1.94063 27.7816 1.965 28.0363 2.08018C28.4186 2.25611 28.7398 2.5776 28.9217 2.97155C29.122 3.40821 29.122 4.29357 28.9217 4.73625C28.7458 5.11849 28.4246 5.43967 28.0303 5.62161C27.5937 5.82159 26.7083 5.82159 26.2716 5.62161C25.5439 5.2881 25.192 4.66347 25.2284 3.75976C25.2467 3.42024 25.2891 3.18387 25.3863 2.97155Z" fill="white"/>
</svg>
