<svg width="164" height="164" viewBox="0 0 164 164" fill="none" xmlns="http://www.w3.org/2000/svg">
<path d="M137.545 44.0681H27V22.6435C27 17.3176 30.7657 13 35.4111 13H129.134C133.779 13 137.545 17.3176 137.545 22.6435V44.0681Z" fill="#C0BEBC"/>
<path d="M129.133 151H35.4109C30.7657 151 27 146.639 27 141.26V44.0681H137.545V141.26C137.545 146.639 133.779 151 129.133 151Z" fill="#4CAE86"/>
<path d="M84.464 34.6754H38.8974C38.3121 34.6754 37.8376 34.1753 37.8376 33.5583V24.2324C37.8376 23.6154 38.3121 23.1152 38.8974 23.1152H84.4638C85.049 23.1152 85.5235 23.6154 85.5235 24.2324V33.5586C85.5235 34.1756 85.0491 34.6754 84.464 34.6754Z" fill="#EAB98F"/>
<path d="M81.5497 140.885C105.691 140.885 125.262 121.476 125.262 97.5341C125.262 73.5921 105.691 54.1833 81.5497 54.1833C57.4082 54.1833 37.8376 73.5921 37.8376 97.5341C37.8376 121.476 57.4082 140.885 81.5497 140.885Z" fill="#E2E1E0"/>
<path d="M81.5498 128.602C98.5087 128.602 112.257 114.854 112.257 97.8953C112.257 80.9364 98.5087 67.1885 81.5498 67.1885C64.5909 67.1885 50.843 80.9364 50.843 97.8953C50.843 114.854 64.5909 128.602 81.5498 128.602Z" fill="#98BCE5"/>
<path d="M81.5498 128.602C98.621 128.602 112.257 113.658 112.257 102.996C112.257 92.3329 95.5706 102.996 78.4994 102.996C61.4282 102.996 50.843 92.3329 50.843 102.996C50.843 113.658 64.4785 128.602 81.5498 128.602Z" fill="#B3CEEC"/>
<circle cx="99.6125" cy="28.5341" r="4.69634" fill="#4CAE86"/>
<circle cx="111.895" cy="28.5341" r="4.69634" fill="#4CAE86"/>
<circle cx="124.178" cy="28.5341" r="4.69634" fill="#4CAE86"/>
</svg>
