<svg width="164" height="164" viewBox="0 0 164 164" fill="none" xmlns="http://www.w3.org/2000/svg">
<path d="M85.6088 14.0588H77.4911V42.978H85.6088V14.0588Z" fill="#98BCE5"/>
<path d="M104.325 36.0441H58.776V61.4118H104.325V36.0441Z" fill="#EAB98F"/>
<path d="M61.7079 21.247H90.9869V10L69.7796 12.2662C67.5632 12.5029 65.5127 13.551 64.0225 15.2087C62.5324 16.8664 61.708 19.0166 61.7079 21.2456V21.247Z" fill="#EAB98F"/>
<path d="M101.194 48.5588H61.8055C57.8789 48.5588 54.113 50.1127 51.3364 52.8787C48.5599 55.6447 47 59.3961 47 63.3078V146.037C47 147.993 47.7799 149.869 49.1682 151.252C50.5565 152.635 52.4394 153.412 54.4028 153.412H108.597C110.561 153.412 112.443 152.635 113.832 151.252C115.22 149.869 116 147.993 116 146.037V63.3078C116 59.3961 114.44 55.6447 111.664 52.8787C108.887 50.1127 105.121 48.5588 101.194 48.5588V48.5588Z" fill="#4CAE86"/>
<path d="M81.5001 124.323C68.2371 124.323 57.4854 113.572 57.4854 100.309C57.4854 87.0458 68.2371 76.2941 81.5001 76.2941C94.763 76.2941 105.515 87.0458 105.515 100.309C105.515 113.572 94.763 124.323 81.5001 124.323Z" fill="#EAB98F"/>
<path d="M92.3236 104.502C92.3236 110.406 87.4777 115.191 81.5 115.191C75.5224 115.191 70.6765 110.406 70.6765 104.502C70.6765 98.5989 81.5 85.4265 81.5 85.4265C81.5 85.4265 92.3236 98.5989 92.3236 104.502Z" fill="#B3CEEC"/>
</svg>
